<?xml version="1.0" standalone="no"?>
<!DOCTYPE svg PUBLIC "-//W3C//DTD SVG 20010904//EN"
 "http://www.w3.org/TR/2001/REC-SVG-20010904/DTD/svg10.dtd">
<svg version="1.0" xmlns="http://www.w3.org/2000/svg"
 width="1028.000000pt" height="533.000000pt" viewBox="0 0 1028.000000 533.000000"
 preserveAspectRatio="xMidYMid meet">
<metadata>
Created by potrace 1.16, written by Peter Selinger 2001-2019
</metadata>
<g transform="translate(0.000000,533.000000) scale(0.100000,-0.100000)"
fill="#000000" stroke="none">
<path d="M0 2665 l0 -2665 124 0 c93 0 124 3 123 13 -1 40 3 48 22 38 17 -10
18 -6 17 57 0 37 3 79 7 93 l7 27 -90 7 -90 7 0 62 c0 33 4 77 9 96 5 19 15
88 22 153 7 72 17 122 26 128 7 7 33 12 58 13 47 1 46 -1 49 64 1 25 -2 27
-47 32 -26 3 -47 8 -47 13 0 4 0 13 0 21 0 9 8 12 28 8 24 -5 26 -4 13 11 -15
19 -11 21 49 16 19 -1 44 -3 55 -3 11 -1 26 -5 33 -9 13 -9 15 -4 13 29 -2 17
3 20 34 16 24 -3 35 0 35 9 0 7 3 10 6 6 4 -3 20 1 36 9 16 8 33 12 38 9 14
-9 51 5 45 16 -4 5 -18 9 -33 9 -15 0 -34 5 -42 11 -11 8 2 9 48 6 34 -3 62
-2 62 2 0 4 -14 8 -31 9 -17 1 -39 6 -48 11 -9 5 -47 12 -86 16 -38 4 -79 9
-90 11 -28 6 -300 34 -325 34 -19 0 -20 6 -20 89 l0 90 57 8 c32 4 132 7 223
7 91 -1 159 1 152 3 -6 3 -10 9 -6 14 7 12 -126 16 -324 9 -45 -1 -82 -6 -82
-11 0 -5 -4 -9 -10 -9 -5 0 -10 20 -10 45 l0 45 68 0 c72 0 112 7 112 20 0 5
-9 12 -20 15 -28 9 -25 25 4 25 29 0 44 18 22 26 -9 3 -13 10 -10 15 3 5 1 9
-4 9 -6 0 -8 17 -5 40 4 24 2 40 -5 40 -14 0 -22 -26 -11 -37 6 -6 4 -15 -7
-24 -12 -9 -15 -10 -10 -1 4 6 2 12 -3 12 -6 0 -11 10 -11 23 0 18 8 26 36 35
33 10 36 9 45 -14 5 -14 9 -41 9 -61 0 -28 3 -34 16 -29 9 3 28 6 44 6 19 0
30 6 32 17 3 16 21 18 201 19 108 1 197 -3 198 -7 0 -5 1 -38 1 -74 1 -63 9
-82 22 -49 3 9 6 42 6 74 l0 59 33 4 32 4 -32 1 c-41 2 -41 11 -3 64 28 38 30
39 30 16 0 -37 23 -51 85 -53 40 -1 55 2 55 12 0 17 19 17 26 -1 5 -14 52 -14
97 0 11 4 17 0 17 -10 0 -13 -15 -16 -82 -17 -46 -1 -108 -4 -138 -8 -44 -6
-29 -8 70 -9 70 0 133 -2 140 -4 11 -2 16 9 18 42 3 36 1 43 -9 32 -16 -15
-46 -16 -55 0 -5 7 0 9 14 6 37 -10 55 14 60 81 4 58 6 61 31 62 23 2 24 2 4
6 -13 2 -23 9 -23 14 0 6 44 8 110 6 61 -2 113 0 116 5 3 4 0 8 -5 8 -6 0 -11
9 -11 20 0 11 -2 20 -5 20 -12 0 -70 -33 -77 -44 -6 -8 -8 -7 -8 1 0 17 -55
44 -74 37 -11 -4 -16 0 -16 15 0 12 -6 21 -15 21 -21 0 -19 18 3 23 16 4 16 5
0 6 -10 0 -18 6 -18 12 0 12 455 7 467 -5 3 -3 -1 -6 -10 -6 -12 0 -17 -9 -17
-30 0 -16 -4 -31 -10 -31 -20 -3 -26 -4 -57 -18 -18 -7 -33 -19 -33 -25 0 -8
-2 -8 -8 0 -10 16 -68 44 -76 37 -3 -4 -6 -2 -6 4 0 6 10 13 23 16 12 4 31 13
42 22 19 16 19 16 -12 11 -18 -3 -35 -1 -38 4 -14 23 -22 6 -24 -49 l-2 -58
111 0 c83 1 110 4 110 14 0 9 -6 10 -25 3 -19 -7 -25 -6 -25 5 0 9 10 13 30
13 17 -1 30 -5 30 -10 0 -4 7 -8 16 -8 8 0 12 -5 9 -10 -4 -6 -10 -8 -14 -5
-5 2 -11 -30 -15 -72 -10 -129 -8 -150 16 -167 25 -18 42 -21 33 -6 -3 6 2 11
12 11 10 1 3 4 -15 8 -18 3 -31 11 -30 16 4 13 242 7 246 -6 2 -5 11 -9 20 -9
11 0 13 -3 6 -8 -14 -9 -34 -46 -34 -62 0 -7 7 -10 15 -7 8 4 17 2 20 -3 4 -6
-3 -10 -15 -10 -43 0 -13 -25 33 -28 58 -4 63 -22 6 -22 -58 0 -70 -16 -65
-92 3 -35 9 -76 15 -91 15 -40 14 -55 -7 -60 -14 -4 -15 -5 -1 -6 24 -2 27
-45 10 -135 -17 -92 -14 -96 69 -94 30 0 42 3 25 5 -56 7 -76 14 -70 23 3 6
15 10 25 10 10 0 21 8 23 17 4 14 5 15 6 2 2 -28 61 -46 126 -39 14 2 12 4 -9
9 -35 7 -69 59 -53 78 6 9 6 17 0 25 -6 7 -8 29 -6 48 l5 35 296 -7 c163 -4
416 -12 562 -18 146 -5 329 -10 408 -10 132 0 143 -1 138 -17 -6 -21 9 -231
19 -254 5 -13 -3 -18 -39 -23 -48 -8 -64 -26 -22 -26 14 0 28 -5 31 -10 9 -15
35 -12 35 4 0 8 4 18 10 21 5 3 7 0 4 -8 -8 -21 21 -39 58 -34 l33 4 -37 1
c-42 2 -58 17 -28 27 21 7 22 32 2 28 -5 -1 -16 4 -22 12 -11 13 -8 13 19 4
17 -6 38 -9 46 -6 9 4 12 1 8 -9 -3 -7 -1 -14 4 -14 5 0 19 -9 31 -21 20 -18
30 -19 80 -13 54 7 56 8 28 17 -22 7 -31 7 -34 -2 -6 -17 -34 -13 -59 8 -13
11 -23 22 -23 25 0 3 10 16 23 29 12 14 27 42 34 63 6 22 30 78 52 125 l39 86
59 11 c32 6 88 14 126 18 37 3 69 10 72 14 6 10 -81 20 -172 20 -58 0 -73 -3
-73 -15 0 -8 -4 -15 -10 -15 -5 0 -10 -6 -10 -14 0 -8 -5 -18 -11 -22 -8 -4
-9 0 -4 15 5 16 2 21 -11 21 -22 0 -7 16 21 23 12 3 8 5 -10 4 -33 -1 -58 10
-50 22 2 5 -12 17 -33 27 -20 10 -39 20 -41 21 -1 1 0 7 4 13 5 7 18 2 42 -16
41 -31 56 -26 16 6 -25 21 -26 22 -5 17 15 -3 22 -1 22 9 0 8 -8 14 -17 15
-11 0 -13 3 -6 6 23 9 14 25 -9 18 l-23 -6 23 20 c12 10 22 24 22 30 0 6 7 11
16 11 11 0 15 6 11 20 -3 11 -1 20 4 20 6 0 7 15 3 37 l-7 36 57 -6 56 -6 1
32 c0 27 2 29 9 12 7 -17 9 -17 9 -2 1 9 6 17 11 17 6 0 10 -8 11 -17 0 -15 2
-15 9 2 5 11 9 16 9 11 1 -5 7 -3 15 3 11 9 16 9 22 0 4 -7 3 -9 -3 -6 -5 3
-10 0 -10 -7 0 -18 24 -9 32 12 3 9 7 19 8 21 1 3 -25 3 -58 2 -130 -7 -125
-5 -110 -44 6 -15 0 -17 -52 -17 -53 0 -61 3 -73 25 -9 18 -10 29 -3 36 7 7
12 1 16 -20 4 -17 12 -31 18 -31 11 0 5 62 -7 82 -8 12 -32 9 -37 -4 -3 -9 -7
-7 -12 6 -5 11 -3 21 4 25 6 4 9 15 5 24 -3 10 -1 17 5 17 6 0 11 -9 11 -19 0
-11 4 -23 10 -26 14 -9 12 10 -5 52 -15 35 -16 36 -29 17 -8 -10 -15 -28 -17
-39 -6 -31 -36 -31 -42 1 -5 29 10 74 25 74 5 0 6 5 3 10 -3 6 1 18 11 27 16
16 18 15 46 -16 20 -22 27 -39 23 -52 -4 -13 -2 -19 9 -19 19 0 16 51 -5 77
-13 15 -12 16 9 11 22 -6 31 6 12 17 -15 9 0 27 17 21 10 -4 17 1 20 15 4 15
8 17 14 8 4 -7 3 -23 -2 -36 -7 -18 -5 -25 7 -30 21 -8 27 2 16 24 -6 11 -7
25 -2 33 4 7 4 23 -2 36 -9 19 -14 21 -30 13 -22 -12 -52 -4 -43 11 3 5 21 10
40 10 54 0 53 20 -2 22 -26 0 -56 0 -67 -1 -15 -1 -17 1 -6 14 7 8 13 35 14
61 2 41 -1 47 -26 60 -67 35 -128 1 -128 -71 0 -22 7 -46 17 -57 20 -22 8 -51
-23 -57 -16 -3 -17 -1 -5 13 11 14 11 16 -3 16 -9 0 -16 7 -16 15 0 8 5 15 10
15 6 0 10 7 10 15 0 15 -38 19 -140 17 -19 0 -27 2 -17 4 9 3 17 10 17 16 0 6
-7 7 -17 3 -10 -4 -38 -9 -63 -11 l-45 -5 40 16 c22 9 59 23 82 31 29 11 40
20 36 30 -4 10 2 14 21 14 l26 0 0 264 c0 262 3 296 23 296 7 0 8 -38 3 -115
-5 -77 -3 -115 4 -115 5 0 10 23 10 53 l0 52 147 -3 c199 -3 191 -1 196 -65 2
-28 4 -1 5 61 1 67 6 112 12 112 6 0 11 -45 12 -112 1 -85 3 -99 7 -59 l6 55
70 -3 c78 -3 87 -6 83 -29 -2 -9 8 -22 25 -30 15 -7 27 -20 27 -28 0 -8 9 -14
21 -14 15 0 19 -4 15 -16 -3 -9 -6 -18 -6 -20 0 -2 -56 -4 -124 -4 l-125 0 -3
-157 c-3 -159 -1 -193 13 -157 6 17 8 16 19 -11 7 -16 14 -38 15 -48 2 -16 -4
-19 -50 -21 -11 -1 -19 -7 -18 -13 2 -7 -2 -13 -7 -13 -6 0 -10 7 -10 15 0 15
-37 35 -66 35 -25 0 -15 -17 14 -23 25 -5 28 -9 24 -36 -4 -30 11 -44 21 -18
4 9 6 9 6 -1 1 -7 6 -10 13 -6 7 4 8 3 4 -4 -4 -7 -14 -12 -21 -12 -8 0 -19
-9 -25 -19 -13 -25 -13 -34 1 -25 8 4 9 -3 4 -25 -5 -24 -4 -30 7 -26 9 4 13
19 11 43 -1 20 0 29 3 19 3 -9 9 -17 13 -17 4 0 5 -14 3 -31 -4 -30 -5 -31
-58 -27 -57 3 -67 -4 -34 -24 27 -17 25 -28 -6 -28 -14 0 -23 -4 -20 -9 5 -8
27 -8 46 -1 3 1 8 2 13 1 4 0 7 8 7 18 0 28 33 20 40 -10 6 -23 9 -24 65 -20
33 2 71 4 85 6 14 1 31 -2 38 -8 10 -8 16 -7 20 1 8 12 122 16 185 6 36 -6 37
-5 37 23 0 24 -6 31 -35 42 -35 12 -47 35 -22 44 6 2 21 -2 32 -9 16 -10 26
-10 51 1 27 11 31 17 27 42 -7 37 13 20 23 -20 5 -24 4 -28 -12 -25 -15 2 -20
-4 -22 -27 -2 -16 -9 -33 -15 -37 -9 -6 -9 -8 1 -8 6 0 12 -12 12 -26 0 -21 4
-24 20 -19 11 4 20 2 20 -4 0 -6 -11 -11 -25 -11 -14 0 -25 5 -25 10 0 6 -4
10 -10 10 -5 0 -10 -6 -10 -14 0 -7 -9 -16 -20 -19 -20 -5 -29 -37 -10 -37 6
0 10 5 10 10 0 6 4 10 9 10 5 0 7 -9 4 -20 -3 -11 -10 -17 -16 -13 -7 4 -8 -5
-4 -25 6 -31 -6 -52 -18 -32 -4 6 -10 8 -15 5 -15 -9 -110 -13 -115 -5 -3 5
-19 6 -37 3 -28 -4 -30 -3 -19 11 10 11 17 13 26 6 6 -5 15 -7 19 -3 4 4 10 3
14 -3 4 -7 24 -9 52 -5 44 6 44 6 46 48 1 23 4 48 7 57 9 22 -13 25 -160 23
l-133 -2 47 -15 47 -15 -3 -61 -2 -61 83 -7 c46 -4 91 -9 100 -12 13 -4 18 0
18 13 0 14 3 12 13 -7 11 -20 11 -26 0 -28 -7 -2 -11 -7 -8 -12 7 -12 45 0 45
14 0 14 47 19 55 6 3 -6 11 -10 16 -10 6 0 8 3 6 8 -3 4 61 4 141 1 81 -4 166
-7 190 -8 24 0 41 -5 37 -10 -5 -9 51 -8 228 3 26 1 47 0 47 -3 0 -4 28 -7 63
-6 67 0 210 -10 320 -21 46 -5 67 -3 67 4 0 6 -21 12 -47 14 -45 3 -48 5 -46
29 1 22 -2 26 -18 22 -10 -3 -19 -13 -19 -23 0 -10 -7 -21 -16 -24 -12 -4 -14
-1 -9 14 5 17 2 20 -22 20 -16 0 -37 6 -48 14 -24 16 -55 17 -72 3 -9 -6 -13
-6 -13 1 0 28 58 38 82 14 19 -19 28 -14 28 13 0 19 -5 25 -21 25 -11 0 -17 5
-14 10 4 7 12 7 25 0 25 -13 112 -1 128 18 7 10 12 11 12 4 0 -7 15 -12 38
-12 53 0 82 10 82 27 0 12 -12 14 -65 11 -36 -3 -65 -1 -65 4 0 18 -31 7 -40
-15 l-9 -22 0 23 c-1 13 -7 22 -13 20 -7 -1 -23 3 -35 10 -13 7 -23 10 -23 7
0 -3 -12 2 -26 11 -18 12 -28 14 -32 6 -5 -7 -19 -8 -42 -2 -19 4 -28 9 -20
10 56 8 87 6 119 -8 43 -19 91 -24 91 -9 0 5 8 3 18 -6 33 -30 82 -18 82 19 0
19 -5 24 -24 24 -14 0 -27 4 -31 9 -3 6 19 11 52 13 83 4 72 23 -15 25 -71 1
-118 13 -55 13 30 0 31 1 23 35 l-8 35 68 0 c68 0 68 0 72 30 6 43 -2 50 -45
40 -22 -5 -39 -4 -43 1 -3 6 -14 7 -25 4 -15 -5 -19 -1 -19 19 0 19 6 26 28
29 25 4 25 4 -5 6 -18 0 -33 6 -33 11 0 6 32 10 75 10 69 0 75 2 75 21 0 11 5
17 10 14 6 -4 8 -10 5 -15 -3 -4 4 -10 15 -13 15 -4 20 0 20 15 0 10 5 16 10
13 6 -4 8 -11 5 -16 -7 -10 22 -25 31 -16 4 3 -3 16 -15 28 -25 27 -27 44 -6
35 19 -7 19 13 1 33 -10 11 -12 21 -6 31 13 21 23 6 30 -43 4 -33 9 -41 23
-39 9 2 17 -2 17 -8 0 -6 -4 -8 -10 -5 -6 4 -10 -15 -10 -49 0 -50 2 -56 21
-56 18 0 20 6 19 58 -4 150 -3 155 38 180 l37 23 -33 -28 c-30 -26 -32 -33
-32 -88 0 -33 3 -70 6 -82 6 -21 7 -21 33 -6 l26 17 -25 -27 c-31 -35 -39
-102 -12 -103 9 -1 24 -4 34 -8 11 -5 18 -2 21 11 3 12 5 9 6 -9 1 -28 14 -37
26 -18 3 6 1 10 -5 10 -7 0 -9 8 -5 19 4 14 -1 20 -21 25 -15 4 -32 2 -40 -5
-11 -9 -14 -8 -14 5 0 10 9 16 25 16 25 0 25 1 22 72 -2 60 -6 72 -22 79 -19
7 -19 8 2 8 12 1 24 9 26 19 4 16 5 16 6 0 0 -10 8 -18 16 -18 8 0 15 -4 15
-10 0 -5 -6 -9 -12 -7 -8 1 -14 -11 -16 -30 -2 -23 1 -33 11 -33 8 0 22 -10
33 -22 19 -23 19 -23 -2 -6 -31 27 -44 22 -44 -17 0 -31 3 -35 28 -36 15 0 21
-3 15 -6 -16 -6 -17 -53 -2 -53 8 0 8 -5 -1 -15 -10 -12 -9 -15 8 -15 20 0 36
25 26 41 -3 5 -11 6 -17 2 -9 -5 -9 -3 -1 8 6 8 12 65 13 128 l3 113 -34 36
-33 35 38 -28 c39 -29 42 -42 37 -171 -1 -23 3 -45 9 -48 7 -5 7 -15 0 -33
-17 -44 -7 -51 75 -51 74 -1 76 0 76 24 0 23 -3 24 -66 23 -36 -1 -68 2 -71 5
-4 3 2 6 11 6 15 0 17 8 14 60 -1 33 0 60 5 60 4 0 7 -26 7 -58 l0 -59 50 -1
c48 -1 50 0 50 25 0 15 2 24 5 22 7 -8 9 -108 2 -115 -3 -4 -21 -7 -39 -7 -18
-1 -38 -8 -45 -17 -11 -13 -12 -13 -13 3 0 13 -8 17 -37 17 -36 -1 -37 -2 -19
-15 19 -14 18 -15 -17 -15 -20 0 -37 -4 -37 -10 0 -6 51 -10 133 -10 72 0 143
-3 156 -7 23 -6 23 -7 5 -14 -11 -5 6 -7 46 -7 36 0 54 3 41 5 -19 4 -21 7
-10 14 11 7 9 9 -8 9 -12 0 -24 -6 -26 -12 -4 -9 -8 -10 -14 -2 -4 6 -16 14
-26 17 -36 13 -11 32 43 33 42 1 53 -2 57 -16 6 -24 60 -30 248 -30 145 0 153
1 148 19 -3 10 0 22 5 25 6 3 8 15 5 26 -4 16 -2 19 11 14 12 -5 15 -15 10
-45 -4 -24 -3 -39 3 -39 6 0 13 19 17 41 4 23 13 51 21 62 12 18 13 13 8 -42
l-5 -61 45 0 c31 0 47 -5 51 -15 4 -12 18 -15 56 -14 39 2 49 6 45 17 -3 7 -5
18 -5 24 0 5 -7 2 -16 -6 -21 -21 -64 -20 -94 4 -22 16 -23 20 -8 25 9 4 40 5
67 2 l51 -5 0 72 c0 49 -3 66 -10 56 -5 -8 -7 -23 -4 -34 5 -16 2 -18 -19 -14
-22 4 -27 1 -30 -21 l-4 -26 -2 28 c-1 23 -5 27 -32 27 -28 0 -31 3 -25 23 3
12 6 28 6 36 0 11 12 13 60 8 49 -6 60 -4 60 8 0 14 13 20 34 16 11 -2 76 59
76 71 0 4 -9 17 -20 28 -16 16 -25 18 -40 10 -11 -6 -20 -21 -20 -33 0 -28
-16 -54 -27 -43 -4 5 -2 11 5 13 15 6 16 33 1 33 -7 0 -18 -8 -25 -17 -7 -10
-16 -14 -20 -10 -4 4 2 14 14 23 12 8 22 25 22 36 0 12 -3 18 -7 15 -3 -4 -12
-2 -20 4 -8 7 -13 8 -13 1 0 -5 -15 -8 -32 -6 -18 1 -39 3 -45 3 -7 1 -13 5
-13 10 0 5 18 7 40 4 33 -5 45 -1 64 16 15 15 26 19 31 12 3 -6 16 -11 28 -11
18 0 19 2 7 10 -12 8 -11 10 7 10 13 0 24 8 28 20 8 26 61 54 83 44 10 -4 66
-8 125 -9 76 -1 111 -6 117 -15 5 -8 9 -9 11 -1 3 7 48 11 127 12 104 1 126
-2 143 -17 10 -9 19 -12 19 -6 0 6 -6 12 -12 15 -7 2 61 3 152 1 91 -1 167 -3
170 -4 3 -1 23 -2 45 -1 22 0 74 -3 115 -6 68 -7 71 -8 35 -14 l-40 -6 34 -2
c19 0 42 6 51 14 13 12 23 13 44 6 14 -6 26 -15 26 -21 0 -5 5 -10 11 -10 6 0
9 6 6 13 -4 11 17 14 104 13 100 0 129 -6 96 -19 -7 -3 -5 -6 6 -6 12 -1 17 7
17 24 0 24 -2 25 -72 25 -76 0 -954 26 -1236 36 -158 6 -163 7 -146 25 12 14
27 17 65 15 l49 -4 0 39 c0 36 23 79 42 79 5 0 8 -27 8 -60 l0 -60 88 -1 c48
0 99 -3 113 -5 l26 -4 -5 164 -5 165 34 4 c33 4 33 4 -3 3 -36 -1 -58 16 -37
30 6 4 6 11 -2 21 -7 8 -13 27 -13 41 -1 15 -5 33 -10 40 -5 8 -4 18 3 25 6 6
12 8 12 4 2 -11 5 -21 12 -37 3 -8 8 -32 12 -54 3 -21 9 -36 12 -32 14 14 -10
99 -38 131 -30 34 -83 55 -99 39 -5 -5 8 -10 28 -12 44 -3 76 -27 49 -38 -10
-3 -26 -4 -37 -1 -11 3 -23 0 -27 -5 -3 -6 -1 -8 5 -4 6 3 13 2 17 -4 4 -6 10
-8 15 -5 10 6 24 -38 22 -67 0 -10 3 -18 9 -18 5 0 9 -7 9 -15 0 -18 -8 -18
-40 0 -41 23 -61 18 -107 -30 -43 -45 -43 -46 -43 -120 0 -63 -3 -76 -19 -85
-11 -5 -22 -6 -25 -2 -3 5 -6 54 -8 110 -1 56 -6 102 -10 102 -4 0 -8 3 -7 8
1 4 -2 16 -6 27 -8 25 -63 32 -106 15 -15 -7 -37 -10 -50 -8 -21 3 -21 4 7 18
33 17 84 66 84 80 0 6 7 10 15 10 8 0 15 7 15 17 0 37 39 -20 52 -76 9 -41 13
-49 16 -31 5 32 -13 89 -38 118 -24 28 -80 38 -133 24 -20 -6 -37 -7 -37 -2 0
21 13 38 25 34 23 -9 25 12 4 34 -25 27 -24 27 -27 -4 -2 -27 -30 -56 -44 -47
-5 2 -21 -5 -37 -16 l-28 -20 -23 23 c-22 24 -22 24 -2 35 12 6 31 11 44 12
23 1 23 1 -2 10 -20 6 -15 8 23 6 50 -2 60 6 28 23 -25 13 -44 13 -36 0 4 -6
-8 -10 -29 -10 -20 0 -36 5 -36 10 0 11 2 11 38 15 36 4 38 14 4 21 -35 7 -34
24 1 24 12 0 29 5 37 10 11 8 7 10 -20 10 -78 -1 -85 2 -82 38 2 20 -1 32 -8
32 -7 0 -10 -8 -8 -18 7 -24 -11 -47 -41 -57 -20 -6 -23 -4 -18 9 8 22 -18 32
-38 16 -13 -11 -14 -8 -9 19 6 27 4 31 -15 31 -19 0 -20 2 -9 20 7 11 22 21
33 21 18 1 18 2 2 6 -26 7 -15 29 12 25 18 -3 42 16 104 84 45 48 88 96 96
108 8 11 -28 -23 -79 -78 l-94 -99 -79 6 c-72 5 -80 4 -84 -14 -7 -24 -53 -27
-53 -3 0 14 -3 14 -15 4 -28 -23 -15 -30 58 -29 39 1 64 3 55 6 -31 8 -19 23
18 23 20 0 34 -3 32 -7 -36 -77 -51 -101 -63 -97 -10 4 -12 -1 -8 -15 3 -12 1
-21 -5 -21 -6 0 -10 -9 -9 -20 1 -11 5 -20 9 -20 4 0 12 9 18 20 12 23 40 27
40 7 0 -33 -69 -63 -85 -37 -11 17 -22 11 -27 -15 -3 -14 -1 -25 5 -25 6 0 4
-6 -5 -12 -9 -7 -18 -20 -21 -28 -5 -13 -6 -12 -6 1 -1 12 -8 15 -26 11 -23
-4 -25 -1 -25 33 0 33 -2 36 -22 30 -22 -7 -22 -7 -4 8 14 10 20 28 21 61 1
26 7 52 13 58 17 17 15 28 -7 28 -10 0 -21 -7 -25 -15 -3 -8 -12 -15 -20 -15
-7 0 -16 -7 -20 -15 -3 -8 -16 -15 -28 -14 -13 0 -17 3 -10 6 6 2 12 11 12 18
0 7 16 20 35 29 36 17 54 36 35 36 -6 0 -29 -8 -50 -19 -35 -17 -41 -17 -60
-4 -20 14 -20 16 -3 28 10 7 15 17 10 21 -4 4 -14 -1 -22 -12 -17 -23 -19 -34
-5 -34 14 0 13 -37 -2 -46 -7 -5 -9 -2 -4 7 4 8 -1 3 -12 -10 -10 -13 -24 -21
-30 -17 -6 3 -13 2 -17 -4 -8 -13 -25 -13 -25 0 0 6 8 14 18 17 30 12 55 41
49 57 -10 25 -29 19 -22 -6 6 -21 5 -22 -8 -5 -17 21 -31 22 -23 2 3 -9 0 -15
-8 -15 -7 0 -19 -7 -26 -16 -8 -8 -21 -19 -31 -25 -27 -14 -14 15 28 68 19 23
30 44 24 47 -6 4 -15 -3 -21 -15 -7 -11 -14 -18 -17 -15 -3 3 -14 1 -24 -5
-13 -6 -19 -6 -19 1 0 5 -5 10 -11 10 -6 0 -9 -6 -6 -14 3 -8 0 -17 -8 -19
-19 -8 -27 4 -14 20 9 10 8 13 -2 13 -11 0 -11 2 1 10 8 5 11 12 7 16 -4 4
-15 -1 -26 -10 -11 -10 -22 -13 -25 -8 -7 12 11 28 39 35 17 4 17 5 -4 6 -21
1 -23 5 -18 31 7 31 -8 53 -16 23 -3 -13 -8 -9 -20 18 -9 20 -23 39 -32 42
-25 10 -17 25 10 19 23 -4 25 -1 25 32 0 38 -8 44 -28 24 -9 -9 -12 -9 -12 2
0 11 -3 11 -12 2 -7 -7 -17 -8 -30 -1 -10 5 -18 6 -18 2 0 -5 14 -14 31 -22
l30 -13 -23 -17 c-32 -22 -54 -20 -50 4 2 15 1 17 -6 6 -8 -11 -11 -9 -17 9
-5 16 0 30 21 53 19 22 15 19 -13 -7 -41 -38 -42 -40 -23 -53 11 -8 18 -19 14
-24 -3 -5 -2 -9 3 -7 12 3 80 -28 87 -41 4 -6 0 -11 -10 -11 -13 0 -14 -3 -5
-13 8 -10 7 -18 -2 -32 -11 -14 -18 -15 -34 -7 -11 6 -23 9 -26 5 -4 -3 -12
-1 -19 5 -19 15 -88 32 -88 21 0 -5 9 -9 19 -9 11 0 30 -12 43 -27 26 -31 75
-57 82 -44 3 5 15 11 26 14 17 4 19 3 9 -9 -6 -7 -15 -12 -19 -9 -4 3 -11 -11
-14 -30 -7 -34 -26 -49 -26 -20 0 8 -4 16 -10 16 -15 2 -22 5 -52 17 -74 31
-77 32 -88 14 -8 -13 -10 -13 -8 -2 4 19 -34 58 -50 52 -6 -2 -24 8 -39 22
-35 33 -44 33 -30 1 7 -14 17 -25 24 -25 35 0 14 -32 -88 -132 -104 -103 -113
-110 -126 -92 -12 16 -11 19 4 25 10 4 27 17 38 29 l20 22 -30 -13 c-17 -7
-40 -22 -52 -33 -20 -17 -23 -17 -23 -3 0 9 6 17 14 17 9 0 12 7 9 21 -5 17
-2 19 20 14 26 -7 46 9 26 21 -8 4 -7 9 2 15 11 7 10 9 -3 9 -10 0 -18 -7 -18
-15 0 -18 -2 -18 -35 -3 -25 11 -36 50 -12 47 23 -3 37 1 37 11 0 5 -3 9 -7 9
-20 -3 -24 2 -13 16 10 12 9 15 -5 15 -12 0 -16 6 -12 20 4 14 1 20 -8 18 -8
-2 -20 6 -28 16 -14 19 -15 19 -27 -4 -11 -20 -10 -22 3 -17 20 7 43 -12 50
-41 4 -18 2 -22 -11 -20 -9 2 -16 11 -14 20 3 19 -2 23 -43 32 -30 7 -30 7 -7
-9 24 -17 21 -38 -3 -28 -8 3 -15 0 -15 -5 0 -13 36 -26 48 -18 5 3 14 -5 19
-17 10 -21 8 -22 -28 -22 -22 -1 -44 -6 -49 -11 -7 -7 1 -10 25 -8 19 2 35 1
35 -2 0 -10 -45 -43 -59 -44 -7 0 -11 -6 -7 -15 3 -8 -2 -18 -11 -23 -10 -6
-1 -8 30 -7 35 2 44 -1 40 -11 -3 -8 -11 -14 -18 -14 -7 0 -18 -6 -24 -14 -10
-12 -8 -13 9 -9 15 4 19 2 14 -10 -3 -9 -25 -18 -52 -22 l-47 -8 35 -8 c39
-10 98 -3 118 13 7 6 15 8 19 4 10 -9 -37 -55 -56 -54 -9 1 -27 0 -41 0 -18
-2 -21 -5 -12 -14 8 -8 15 -8 27 2 8 7 18 10 21 7 9 -9 -19 -34 -42 -39 -10
-2 -19 -8 -19 -13 0 -6 -4 -15 -8 -22 -10 -16 7 -25 30 -16 16 6 16 5 4 -10
-15 -19 -41 -23 -41 -7 0 17 -18 11 -22 -7 -2 -12 -26 -25 -73 -39 -70 -22
-94 -22 -64 -1 16 12 14 36 -5 50 -6 5 8 7 32 5 23 -2 42 0 42 4 0 5 5 8 11 8
5 0 7 -5 4 -10 -3 -6 -1 -10 6 -10 7 0 9 8 6 21 -3 13 -1 19 6 16 7 -2 11 -14
9 -27 -4 -22 -4 -22 24 3 16 15 25 29 22 32 -3 3 -59 8 -124 11 -66 3 -126 8
-134 11 -8 4 -24 5 -35 5 -18 -2 -18 -1 3 10 23 11 30 28 12 28 -5 0 -10 -4
-10 -10 0 -5 -7 -10 -15 -10 -7 0 -18 -6 -22 -13 -6 -10 -33 -12 -128 -5 -217
14 -454 23 -447 17 4 -4 72 -9 152 -13 220 -9 343 -17 367 -22 13 -2 23 -13
25 -27 2 -12 9 -21 17 -19 9 2 11 -3 7 -13 -3 -9 -6 -19 -6 -22 0 -4 -9 2 -19
11 -13 12 -21 14 -26 6 -3 -5 -10 -8 -15 -5 -5 3 -11 1 -15 -5 -11 -17 -23
-11 -29 15 -8 30 -26 33 -26 5 0 -12 -7 -20 -17 -20 -12 -1 -9 -6 12 -17 29
-16 29 -16 7 -24 -13 -5 -125 -4 -250 1 -125 5 -382 17 -572 25 -190 8 -376
16 -414 18 l-70 3 -2 42 c-1 24 -5 55 -9 69 l-6 25 178 -5 c211 -6 201 -1 -22
12 -134 8 -163 7 -176 -5 -8 -8 -19 -14 -23 -14 -10 0 -86 -52 -86 -59 0 -3
22 -6 49 -6 49 0 49 0 44 27 -3 16 -1 28 5 28 10 0 28 -108 19 -116 -3 -3 -96
0 -208 6 -112 6 -289 13 -394 14 l-190 2 -67 -70 c-38 -39 -68 -72 -68 -73 0
-2 14 -3 31 -3 l32 0 -7 -65 c-4 -42 -3 -65 4 -65 5 0 10 6 10 14 0 8 10 17
23 19 17 3 16 5 -8 6 -27 1 -28 3 -12 15 10 8 17 18 16 22 -4 26 4 34 10 10 5
-27 10 -30 49 -33 l42 -3 0 46 c0 32 4 44 13 41 6 -2 11 -11 11 -19 -1 -10 5
-14 17 -11 11 3 16 10 12 17 -3 6 -3 8 1 5 4 -4 9 -47 12 -95 3 -49 9 -93 14
-98 19 -19 28 9 34 106 8 130 8 128 18 128 4 0 9 -57 10 -127 1 -71 3 -102 5
-70 l4 57 120 0 120 0 -2 -67 c-2 -83 -7 -92 -30 -62 -10 13 -21 20 -26 15 -4
-5 -2 -11 5 -13 6 -3 10 -9 7 -13 -3 -5 -17 -5 -32 1 -17 6 -30 6 -36 0 -6 -6
-37 -7 -73 -4 l-64 6 0 -42 c0 -22 3 -40 8 -38 4 1 7 -2 7 -8 0 -5 -3 -9 -7
-8 -5 2 -8 -7 -9 -20 0 -12 -3 -71 -5 -132 -6 -110 1 -137 12 -54 7 48 20 63
40 46 10 -10 10 -16 0 -32 -23 -37 -26 -55 -10 -55 8 0 12 5 9 11 -4 6 1 5 13
-2 12 -7 17 -19 14 -31 -5 -19 -11 -21 -54 -18 -25 1 -28 -2 -28 -29 0 -21 -7
-34 -21 -42 -20 -10 -21 -9 -14 30 l7 41 -57 0 -57 0 4 -42 c2 -37 0 -43 -20
-48 -13 -3 -28 -16 -35 -30 -10 -19 -20 -24 -42 -23 -39 3 -57 22 -27 29 30 8
28 24 -3 24 -22 0 -25 -4 -25 -33 0 -31 2 -33 36 -34 19 -1 38 -4 42 -8 10 -9
-30 -37 -44 -31 -7 3 -15 -5 -18 -17 -7 -29 -3 -30 25 -9 72 55 289 125 289
94 0 -6 -17 -14 -37 -17 -91 -15 -230 -79 -328 -150 -30 -22 -65 -29 -65 -13
0 4 7 8 15 8 10 0 14 9 13 25 -3 27 -13 33 -21 13 -3 -8 -6 -7 -6 4 -1 9 4 20
10 23 6 4 14 17 19 29 9 21 9 21 9 0 1 -30 10 -35 37 -17 36 23 31 43 -10 43
l-35 0 16 48 c18 53 27 62 66 62 15 0 27 5 27 10 0 6 -7 10 -16 10 -12 0 -15
7 -12 24 3 16 1 23 -7 20 -21 -8 -38 24 -31 58 8 37 14 112 19 235 3 64 1 83
-10 83 -10 0 -13 -29 -14 -132 -1 -114 -13 -279 -18 -240 0 6 -8 12 -16 12 -8
0 -15 9 -15 21 0 11 -4 17 -10 14 -6 -4 -10 15 -10 49 0 42 4 56 15 56 10 0
15 -15 17 -57 2 -32 4 10 4 93 1 83 5 165 9 183 6 27 4 31 -14 31 -16 0 -21 6
-21 25 0 16 6 25 15 25 25 0 18 38 -7 43 l-23 4 23 2 c12 0 22 6 22 11 0 6 1
13 3 17 1 4 -11 11 -28 14 l-30 7 33 1 c26 1 32 5 32 24 0 14 -9 26 -25 34
-14 6 -25 7 -25 2 0 -4 -29 -6 -65 -2 l-65 6 0 -31 c0 -25 3 -29 20 -25 23 6
25 14 8 33 -11 12 -10 12 3 2 9 -7 25 -9 35 -6 16 5 15 4 -3 -10 -23 -18 -29
-82 -7 -90 8 -3 12 5 12 23 -1 16 3 34 7 41 12 20 25 -9 25 -57 0 -24 4 -43 9
-43 5 0 11 -13 13 -28 l4 -28 -66 7 c-36 4 -66 6 -66 6 -1 -1 -3 -82 -5 -179
-4 -165 -8 -194 -24 -168 -7 12 -28 -6 -38 -32 -7 -20 -27 -25 -27 -7 0 5 -4
8 -10 4 -5 -3 -7 -12 -3 -20 8 -23 -14 -18 -31 7 -9 12 -19 19 -22 15 -4 -4
-1 -13 6 -22 12 -15 4 -20 -22 -16 -5 0 -8 -4 -8 -9 0 -6 5 -10 12 -10 9 0 9
-3 0 -12 -8 -8 -15 -8 -28 3 -9 7 -22 14 -28 15 -28 3 -56 18 -56 29 0 18 -25
26 -39 12 -8 -8 -11 -6 -11 8 -1 19 -1 19 -11 3 -14 -24 -33 -23 -26 2 3 10 0
21 -7 24 -8 3 -7 7 2 14 11 7 11 10 -2 15 -16 6 -32 -25 -21 -43 6 -9 -5 -13
-22 -7 -9 2 -5 420 3 450 6 21 24 23 24 3 0 -8 4 -17 9 -20 5 -3 7 8 6 24 -1
17 1 33 6 36 5 3 9 2 8 -3 -4 -20 2 -34 12 -28 6 4 8 14 5 22 -9 23 3 34 24
23 15 -8 21 -6 29 7 9 16 10 16 11 2 0 -18 30 -36 30 -19 0 10 124 5 140 -5
11 -7 40 5 40 16 0 5 -39 9 -87 9 -68 0 -84 3 -75 12 18 18 14 38 -8 38 -13 0
-20 7 -20 20 0 15 -7 20 -24 20 -14 0 -28 5 -31 10 -9 14 -26 12 -23 -2 2 -7
-4 -12 -12 -13 -8 0 -19 -10 -25 -22 -9 -22 -55 -50 -55 -33 0 5 4 12 10 15
14 9 44 75 37 82 -4 3 -9 -2 -13 -11 -12 -31 -24 -16 -18 24 4 26 2 45 -6 55
-7 8 -10 22 -6 30 4 10 -1 15 -15 15 -16 0 -20 -5 -16 -19 2 -10 1 -25 -4 -32
-6 -9 -9 -1 -9 24 0 20 -3 36 -7 36 -22 -4 -43 2 -43 12 0 7 10 9 24 5 33 -8
39 5 26 52 -9 35 -13 39 -35 34 -14 -2 -31 1 -39 7 -10 8 -16 9 -21 1 -3 -6
-11 -8 -16 -5 -15 10 -10 -12 6 -25 12 -10 13 -15 3 -21 -17 -10 -28 -2 -28
22 0 10 -4 19 -10 19 -5 0 -10 -9 -10 -20 0 -11 -4 -20 -9 -20 -12 0 -4 50 10
66 7 8 7 14 0 18 -11 7 -20 -5 -31 -42 l-8 -27 -1 27 c-1 15 -5 29 -10 32 -4
3 -6 16 -4 29 3 14 -2 29 -12 37 -15 12 -16 9 -13 -31 2 -29 -2 -48 -11 -55
-10 -8 -11 -15 -2 -32 15 -29 14 -52 -2 -32 -7 8 -22 14 -34 12 -18 -3 -23 2
-23 17 0 12 -4 21 -10 21 -5 0 -10 -8 -10 -18 0 -10 -5 -23 -11 -29 -7 -7 -8
-22 -1 -45 7 -26 6 -39 -5 -54 -11 -13 -17 -15 -20 -6 -6 14 -33 16 -33 2 0
-5 -8 -10 -17 -10 -17 1 -16 2 1 15 16 12 17 17 6 30 -7 8 -19 15 -26 15 -28
0 -10 33 21 38 10 2 24 10 30 17 5 7 18 17 29 22 15 9 16 11 3 16 -9 3 -31 -4
-49 -16 -32 -22 -78 -25 -78 -6 0 5 6 9 13 8 32 -4 55 2 61 17 5 13 1 15 -17
10 -23 -5 -23 -4 -20 55 2 34 -1 67 -7 73 -5 7 -7 16 -3 19 3 4 1 7 -6 7 -7 0
-11 -6 -8 -12 2 -7 -3 -18 -10 -23 -11 -8 -12 -17 -4 -36 8 -22 5 -29 -18 -50
-29 -26 -45 -65 -30 -75 5 -3 9 -10 9 -16 0 -6 -9 -3 -20 7 -30 27 -24 77 10
85 17 4 21 8 12 14 -16 10 -15 26 2 26 9 0 12 7 9 20 -3 11 0 20 6 20 6 0 11
5 11 10 0 6 -7 10 -15 10 -8 0 -15 4 -15 8 0 25 -72 78 -90 67 -12 -7 -14 -26
-2 -23 4 2 8 -1 9 -7 3 -16 -30 -5 -45 16 -7 10 -19 19 -27 19 -7 0 -15 10
-17 22 -2 12 -9 23 -17 26 -10 3 -12 -3 -9 -29 8 -49 -6 -79 -31 -72 -12 3
-21 9 -21 14 0 5 -5 9 -11 9 -7 0 -9 -10 -5 -26 5 -20 3 -24 -11 -22 -23 4
-48 38 -45 61 6 31 -18 18 -25 -14 -4 -21 -10 -28 -20 -25 -8 4 -17 6 -19 6
-2 0 -4 7 -4 15 0 8 -4 15 -10 15 -15 0 -12 -37 4 -52 11 -11 11 -18 -1 -45
-10 -24 -11 -39 -3 -53 14 -27 12 -34 -5 -20 -8 7 -15 25 -15 41 0 16 -4 29
-10 29 -26 0 3 -101 32 -113 8 -3 6 -6 -4 -6 -10 -1 -18 -6 -18 -12 0 -7 -9
-5 -24 5 -23 15 -25 15 -32 -6 -4 -13 -2 -24 5 -26 6 -2 11 -11 11 -21 0 -9 6
-23 12 -29 10 -10 8 -14 -10 -18 -12 -4 -22 -13 -22 -20 0 -16 -26 -19 -35 -4
-3 6 -15 10 -26 10 -13 0 -19 7 -19 21 0 12 -8 23 -20 26 -22 6 -28 23 -7 23
6 0 13 12 13 26 2 26 37 68 48 57 3 -4 6 -1 6 6 0 16 -41 4 -58 -17 -7 -9 -12
-11 -12 -4 0 7 -5 12 -10 12 -6 0 -8 -11 -4 -26 l7 -26 -42 23 c-37 22 -59 48
-28 36 6 -3 21 -8 32 -12 l20 -7 -20 17 c-11 9 -20 20 -20 25 0 16 -13 22 -47
22 -42 0 -73 21 -64 44 6 16 9 15 23 -6 16 -22 17 -22 24 -4 7 21 -6 44 -26
44 -8 0 -11 8 -8 21 4 14 8 17 13 8 5 -6 28 -13 52 -14 52 -2 68 -10 68 -35 0
-14 7 -18 38 -17 36 2 37 4 33 31 -3 27 -5 28 -17 12 -12 -17 -13 -16 -24 3
-9 18 -8 21 10 21 12 0 18 5 15 10 -3 6 -16 8 -28 5 -24 -5 -52 15 -80 57 -9
16 -22 27 -28 25 -7 -1 -13 3 -16 9 -6 17 41 23 56 7 13 -14 35 -8 26 8 -4 5
1 9 10 9 10 0 14 -5 9 -12 -5 -10 -4 -10 6 -1 15 14 4 35 -18 31 -10 -1 -23 1
-31 6 -8 5 -16 3 -22 -5 -6 -10 -9 -11 -9 -1 0 6 -5 12 -11 12 -11 0 -69 54
-69 64 0 3 7 6 16 6 10 0 14 6 10 15 -3 9 0 15 9 15 8 0 15 -7 15 -15 0 -8 8
-15 17 -15 14 0 14 3 -4 23 -15 16 -19 28 -13 44 6 15 4 26 -11 39 -10 9 -22
14 -27 9 -4 -4 -1 -10 6 -12 17 -6 15 -23 -3 -23 -8 0 -15 9 -15 20 0 11 -4
21 -10 21 -5 1 -14 2 -18 3 -5 0 -16 9 -26 19 -23 22 -14 67 14 74 42 11 17
29 -32 24 -10 -1 -18 2 -18 6 0 5 -12 9 -27 8 -24 0 -28 5 -34 40 -4 21 -12
41 -18 43 -17 6 -3 22 20 22 10 0 19 5 19 11 0 5 -10 9 -22 7 -16 -2 -22 1
-19 12 5 22 2 242 -4 248 -3 3 -1 10 4 16 13 17 22 76 11 76 -6 0 -10 -13 -10
-30 0 -16 -4 -30 -10 -30 -5 0 -10 12 -10 28 0 40 -19 102 -32 102 -6 0 -7 -7
-3 -17 12 -30 18 -120 6 -103 -5 8 -7 18 -4 22 2 5 0 15 -7 23 -13 16 -11 105
3 105 5 0 -9 18 -32 40 -22 22 -41 45 -41 50 0 12 -61 41 -71 34 -4 -2 -12 3
-19 11 -10 13 -9 15 9 15 12 0 29 -4 39 -9 9 -5 25 -12 34 -15 10 -3 18 -14
18 -24 0 -11 7 -25 15 -32 12 -10 15 -10 15 3 0 9 -4 18 -10 22 -5 3 -6 13 -3
22 5 14 8 14 17 1 6 -8 23 -23 39 -32 15 -10 27 -27 27 -37 0 -16 -3 -15 -26
8 -14 14 -28 23 -31 19 -3 -3 8 -17 24 -30 27 -23 35 -41 49 -110 9 -41 16
-29 9 14 -3 25 -8 62 -10 83 -4 39 -47 89 -88 103 -12 4 -16 13 -13 30 3 15
-1 27 -11 32 -11 7 -16 27 -17 70 -1 58 14 90 22 48 2 -11 10 -26 18 -34 16
-15 18 -32 5 -32 -5 0 -5 -16 -1 -37 5 -20 7 -40 4 -44 -2 -4 1 -11 7 -14 7
-5 8 7 4 39 -7 42 -6 46 11 40 13 -4 15 -3 7 3 -17 12 -23 55 -9 72 8 11 8 15
0 18 -7 2 -9 13 -6 25 4 17 1 19 -16 14 -11 -4 -23 -3 -26 2 -3 6 4 12 15 15
12 3 18 10 14 16 -3 6 -2 11 4 11 5 0 12 -8 15 -17 3 -10 4 -5 2 10 -3 26 -1
28 20 23 18 -5 24 -2 24 10 0 11 5 14 17 9 51 -20 49 -20 34 -1 -11 13 -25 17
-52 14 -28 -3 -37 0 -37 12 0 8 -3 25 -7 37 -6 18 -4 21 13 17 12 -4 22 0 26
12 5 13 4 15 -7 6 -18 -15 -28 -5 -21 22 3 15 -5 31 -31 56 -34 33 -46 72 -25
85 8 5 7 11 -1 21 -6 7 -9 20 -6 28 5 14 15 13 116 -10 23 -5 32 -4 28 3 -4 6
-21 13 -39 16 -66 11 -102 23 -106 36 -3 10 8 12 52 8 30 -3 58 -2 61 4 4 5
-5 9 -18 9 -13 0 -39 5 -57 11 l-33 12 7 121 c4 67 9 136 13 155 l6 34 84 -7
c78 -7 84 -6 82 11 -1 10 1 26 5 35 9 21 0 38 -20 38 -20 0 -29 -27 -14 -45
10 -13 8 -15 -13 -15 -28 0 -45 16 -25 23 11 3 11 9 0 26 l-12 21 5005 0 5005
0 0 -1345 0 -1345 -36 39 c-19 22 -39 52 -43 68 -12 44 -14 160 -2 168 6 3 11
10 11 16 0 5 -9 0 -20 -11 -19 -19 -20 -28 -14 -106 7 -84 8 -87 55 -142 l49
-57 0 -186 c0 -206 1 -203 -64 -192 -24 4 -36 2 -36 -6 0 -6 9 -11 20 -11 11
0 20 -4 20 -9 0 -5 14 -14 30 -20 54 -18 31 -26 -80 -26 -61 0 -110 -3 -110
-7 0 -5 50 -8 110 -8 95 0 110 -2 110 -16 0 -15 -26 -16 -297 -8 -518 15 -837
7 -826 -22 4 -10 -18 -13 -106 -12 -61 1 -111 5 -111 8 0 15 86 31 139 27 31
-2 43 -2 28 0 -16 2 -30 10 -33 17 -8 20 -12 82 -13 195 -1 92 -3 102 -16 91
-13 -11 -13 -15 -3 -21 10 -7 10 -11 0 -21 -9 -9 -12 -9 -12 5 0 9 1 19 3 20
1 2 -3 10 -9 18 -6 8 -15 35 -18 62 -4 26 -12 47 -18 47 -7 0 -7 4 0 13 9 10
6 17 -8 27 -11 8 -20 18 -20 22 0 15 27 8 54 -13 29 -23 33 -12 11 30 -13 27
-17 28 -66 23 -49 -5 -51 -4 -40 16 17 33 13 37 -13 13 -29 -27 -39 -72 -27
-123 8 -33 7 -38 -9 -38 -10 0 -20 6 -23 13 -2 6 -8 8 -13 4 -5 -5 -1 -14 9
-21 9 -7 17 -25 17 -39 0 -14 4 -48 10 -74 5 -26 12 -109 14 -183 5 -133 6
-135 28 -135 21 0 23 -5 26 -52 2 -33 8 -53 15 -53 7 0 6 -4 -3 -10 -13 -8
-12 -10 3 -10 9 0 17 -4 17 -10 0 -5 -7 -10 -15 -10 -21 0 -19 -20 3 -20 15
-1 15 -2 -2 -15 -19 -15 -19 -15 2 -15 15 0 22 6 22 20 0 11 7 20 15 20 8 0
16 9 16 20 1 11 3 25 4 30 1 6 4 20 5 33 4 40 18 -65 19 -151 1 -60 -2 -81
-11 -76 -6 4 -17 -1 -25 -11 -9 -14 -27 -19 -66 -21 -28 -1 -63 -6 -77 -12
-20 -8 -1 -11 88 -11 l113 -1 -5 53 c-3 28 -7 108 -8 176 l-3 124 45 0 c43 0
45 -1 48 -31 3 -32 25 -44 35 -19 4 9 6 9 6 0 1 -7 8 -13 16 -13 8 0 15 6 15
13 0 8 3 9 8 1 8 -13 71 -24 77 -13 3 4 14 5 25 2 12 -3 20 0 20 7 0 10 4 10
16 -1 22 -18 84 -23 84 -7 0 9 3 8 10 -2 9 -13 11 -13 20 0 9 13 10 13 11 0 0
-10 3 -8 8 5 5 11 17 20 31 20 14 0 24 7 26 17 2 14 -1 16 -16 8 -25 -13 -54
-2 -40 15 6 7 7 21 3 30 -5 15 -3 17 13 11 75 -31 75 -32 85 -13 10 17 37 21
77 11 16 -5 20 -10 12 -19 -7 -8 -5 -12 5 -12 8 0 15 6 15 14 0 18 54 17 70
-2 7 -8 24 -15 38 -15 25 0 25 1 7 14 -11 8 -26 12 -35 9 -13 -4 -13 -3 0 5 8
6 18 8 23 5 5 -3 34 -6 63 -6 43 0 51 -3 43 -14 -9 -10 -8 -13 5 -13 9 0 16 4
16 9 0 13 131 12 147 0 7 -6 17 -8 24 -4 6 4 48 8 92 9 66 1 82 -2 85 -14 2
-13 -10 -15 -78 -14 -68 1 -80 -1 -76 -13 3 -8 6 -17 6 -19 0 -9 59 -3 65 6
12 19 31 10 33 -15 1 -18 -3 -25 -16 -24 -10 0 -12 3 -4 6 6 2 12 9 12 14 0 4
-7 6 -15 3 -16 -6 -21 -34 -7 -34 5 0 9 -14 10 -31 1 -38 12 -53 12 -16 0 14
4 29 10 32 6 4 10 -14 10 -47 1 -104 12 -304 21 -358 8 -57 7 26 -8 339 -5
121 -4 143 8 139 12 -4 14 -82 16 -489 2 -481 2 -485 -18 -497 -16 -10 -19
-10 -13 -1 5 9 -5 11 -47 6 -30 -4 -74 -7 -98 -7 -79 0 -36 -11 70 -18 l104
-7 3 -35 3 -35 -112 -1 c-83 -1 -113 -5 -120 -15 -5 -8 -9 -9 -9 -4 0 9 -45
11 -137 5 -26 -1 -11 -6 51 -15 62 -9 117 -10 185 -4 149 13 141 15 141 -28 0
-49 -14 -73 -27 -48 -8 14 -37 20 -144 32 -225 23 -302 30 -352 29 -26 -1 -47
1 -47 4 0 3 -22 6 -50 5 -37 0 -50 -4 -50 -15 -1 -12 -3 -11 -11 2 -9 17 -12
16 -41 -5 -22 -16 -32 -18 -35 -9 -3 6 -9 12 -14 12 -6 0 -7 -4 -4 -10 3 -5 2
-10 -4 -10 -5 0 -11 4 -13 9 -2 6 -17 6 -38 1 -32 -7 -32 -8 -7 -9 15 -1 27
-4 27 -8 0 -5 30 -7 67 -7 84 2 143 -5 143 -17 0 -5 -10 -9 -22 -10 -15 -1 -9
-5 17 -12 27 -7 40 -7 42 0 2 6 13 9 23 6 15 -4 17 -9 11 -22 -7 -13 -4 -16
20 -17 33 -1 38 10 12 25 -16 9 -15 10 7 11 14 0 42 -3 63 -7 44 -7 32 -23
-18 -23 l-30 0 29 -15 c33 -18 39 -19 31 -5 -4 6 5 10 20 10 20 0 26 4 21 15
-6 17 9 21 19 5 3 -6 17 -7 31 -4 14 4 24 2 24 -5 0 -6 7 -11 16 -11 8 0 13 4
10 8 -2 4 5 9 17 9 20 2 20 1 5 -8 -22 -12 -23 -29 -2 -29 8 0 13 -4 10 -8
-10 -16 70 -35 139 -34 113 2 105 19 105 -203 l-1 -194 -55 -11 c-31 -7 -65
-10 -75 -7 -10 3 -17 1 -14 -3 3 -5 -28 -14 -67 -20 -40 -7 -100 -19 -133 -27
-126 -30 -273 -61 -320 -67 -16 -2 -42 -8 -56 -14 -15 -6 -44 -14 -65 -18 -22
-4 -48 -8 -58 -10 -10 -2 -34 -8 -51 -14 -18 -6 -55 -15 -81 -19 -41 -7 -201
-48 -319 -82 -82 -23 50 1 163 30 151 39 382 91 602 136 91 19 241 50 334 70
93 19 175 35 182 35 9 0 14 -13 14 -38 l0 -37 -75 -29 c-42 -16 -74 -31 -71
-33 2 -2 32 7 67 21 34 15 66 26 71 26 4 0 8 -43 8 -95 0 -78 3 -95 15 -95 13
0 15 303 15 2665 l0 2665 -5140 0 -5140 0 0 -2665z m5573 404 c24 -27 29 -30
44 -18 15 13 16 11 10 -13 -6 -21 -4 -26 6 -22 8 3 20 -2 27 -11 11 -14 11
-16 -1 -13 -9 2 -13 -5 -12 -19 4 -34 -16 -28 -33 10 -9 20 -14 25 -13 12 1
-11 1 -29 0 -40 -2 -19 -2 -19 -20 3 -11 12 -26 22 -35 22 -9 0 -16 6 -17 13
0 6 -5 1 -12 -13 l-11 -25 -4 28 c-2 19 -9 27 -23 27 -11 0 -19 -7 -19 -16 0
-8 -4 -13 -9 -10 -14 9 0 48 15 42 8 -3 11 0 8 8 -6 16 31 50 46 41 6 -3 10
-3 9 2 -6 33 11 30 44 -8z m-4996 -431 c29 -15 33 -15 48 2 14 16 19 16 44 4
27 -14 41 -45 41 -95 0 -29 -29 -22 -36 9 -10 42 -17 47 -26 22 -5 -13 -4 -27
2 -35 7 -8 5 -12 -5 -12 -8 0 -15 4 -15 9 0 4 -5 8 -11 8 -6 0 -9 -6 -6 -14 7
-17 -44 -30 -54 -14 -4 7 -9 6 -13 -1 -4 -6 0 -18 8 -27 17 -16 21 -34 9 -34
-15 1 -43 49 -33 55 5 3 10 14 10 23 0 15 -2 15 -10 2 -9 -13 -12 -12 -25 4
-8 11 -15 33 -15 49 0 25 2 28 15 17 10 -8 15 -9 15 -2 0 6 7 9 15 6 8 -4 15
-1 15 5 0 6 -7 11 -15 11 -8 0 -15 6 -15 13 0 18 12 30 19 19 3 -5 20 -16 38
-24z m2653 -265 c0 -32 -4 -64 -8 -71 -9 -14 -42 -6 -42 10 0 5 -12 7 -29 3
-24 -5 -30 -2 -36 17 -7 23 -7 22 -14 -5 -6 -27 -6 -28 -20 -8 -11 15 -18 17
-27 10 -9 -7 -19 -7 -33 1 -16 8 -21 20 -21 55 l0 45 115 0 115 0 0 -57z
m-2744 -118 c-5 -20 -3 -25 14 -25 11 0 20 6 20 13 0 6 6 1 14 -13 14 -27 2
-56 -13 -31 -6 9 -11 10 -15 2 -12 -19 5 -33 33 -27 16 4 21 3 13 -2 -14 -9 4
-30 46 -51 12 -6 22 -16 22 -22 0 -6 -4 -8 -9 -4 -5 3 -13 0 -17 -6 -4 -8 -9
-7 -15 2 -4 7 -11 10 -15 6 -4 -3 5 -22 20 -42 23 -30 24 -35 10 -35 -16 0
-16 -1 -2 -12 17 -14 31 -61 21 -72 -3 -3 -15 1 -25 11 -22 20 -33 12 -19 -15
16 -29 14 -68 -5 -86 -9 -9 -13 -24 -9 -35 4 -14 0 -21 -15 -26 -18 -6 -20
-12 -15 -33 3 -15 13 -32 21 -38 7 -6 14 -16 14 -21 0 -14 35 -44 43 -36 4 3
7 -1 7 -10 0 -13 -10 -17 -37 -18 -21 -1 -49 -4 -63 -8 l-25 -7 23 -13 c20
-10 23 -19 20 -47 -2 -19 0 -34 4 -34 4 0 8 7 8 15 0 8 5 15 10 15 6 0 10 -6
10 -14 0 -16 43 -26 111 -26 27 0 49 -5 49 -10 0 -7 -70 -10 -207 -10 -192 1
-208 0 -214 -17 -7 -17 -8 -17 -8 0 -1 10 -8 20 -16 23 -38 15 -10 25 60 22
41 -2 75 0 75 4 0 4 12 13 28 20 15 7 27 20 27 28 0 8 4 21 8 28 5 6 4 12 -2
12 -6 0 -20 10 -33 23 -20 20 -23 31 -20 91 3 60 2 68 -12 63 -17 -7 -56 11
-56 25 0 4 9 6 19 5 11 0 17 -6 14 -12 -4 -5 3 -2 15 9 21 18 21 18 28 -8 3
-14 10 -23 15 -20 6 3 6 12 0 22 -6 10 -4 23 6 39 12 19 13 26 3 38 -9 11 -16
12 -25 5 -6 -5 -15 -7 -18 -3 -4 3 -7 -1 -7 -10 0 -9 -4 -17 -10 -17 -5 0 -10
5 -10 11 0 8 -4 8 -14 0 -10 -8 -16 -9 -21 -2 -3 6 5 16 19 23 21 9 24 14 14
26 -10 11 -9 17 5 27 18 13 24 31 7 20 -6 -4 -17 -1 -25 5 -11 9 -19 8 -37 -4
-31 -22 -48 -19 -20 3 27 24 28 31 2 31 -21 0 -25 18 -20 100 2 41 8 50 20 30
7 -11 11 -11 24 -1 9 8 16 22 16 32 0 27 54 53 80 39 11 -6 20 -16 20 -21 0
-6 7 -9 15 -5 8 3 15 1 15 -5 0 -6 4 -8 9 -5 5 4 1 24 -10 46 -23 48 -24 70
-3 70 12 0 15 -6 10 -25z m2889 -425 c-5 -16 -2 -20 15 -20 13 0 20 -5 17 -12
-2 -7 -13 -12 -23 -11 -36 4 -214 -20 -214 -28 0 -5 4 -9 10 -9 5 0 45 -35 88
-77 79 -77 80 -79 75 -121 -4 -38 0 -46 27 -72 l31 -29 -16 -61 c-12 -45 -13
-65 -5 -75 6 -7 9 -33 8 -57 l-3 -43 -58 -3 c-52 -3 -57 -1 -57 18 0 63 -98
150 -169 150 -69 0 -141 -54 -141 -107 0 -12 -5 -25 -11 -29 -9 -5 -10 4 -5
31 7 35 6 37 -8 26 -9 -8 -16 -10 -16 -5 0 5 -54 9 -120 9 -110 0 -119 -1
-114 -17 3 -10 1 -18 -5 -18 -5 0 -11 8 -13 17 -3 15 -23 17 -186 19 -100 0
-185 4 -189 8 -3 3 -11 2 -18 -4 -7 -6 -20 -5 -36 4 l-25 13 -1 -48 c-1 -27 2
-51 7 -54 13 -8 703 -8 723 0 19 8 23 -10 8 -34 -8 -12 -59 -13 -327 -6 -471
13 -442 11 -427 26 24 24 -47 156 -95 178 -13 6 -41 11 -62 11 l-40 0 0 41 c0
38 2 41 45 60 l46 20 42 -20 c52 -26 139 -100 131 -112 -9 -16 6 -31 20 -20
10 8 18 5 31 -9 10 -11 23 -20 29 -20 5 0 -6 17 -26 38 l-37 37 22 55 22 55
85 7 c47 4 204 14 350 23 146 9 291 18 324 22 l58 6 -6 45 c-7 55 -37 105 -72
120 -30 14 -27 36 4 40 26 4 30 22 5 22 -34 1 10 18 64 26 33 4 53 2 57 -5 5
-8 11 -8 20 1 7 8 44 14 90 15 73 2 77 1 71 -17z m-1359 -8 c10 -9 22 -17 28
-17 6 0 10 -14 9 -31 -1 -27 2 -31 18 -27 22 6 26 23 4 23 -22 0 -18 21 5 27
11 3 20 11 20 19 0 7 5 16 11 20 8 4 9 0 4 -15 -4 -12 -2 -21 4 -21 15 0 14
-27 -1 -33 -10 -3 -10 -8 1 -21 18 -21 8 -31 -32 -31 l-32 0 -3 -76 -3 -76 26
4 c30 6 34 23 5 23 -12 0 -20 7 -20 18 0 21 36 46 46 31 3 -6 12 -8 20 -5 7 3
16 1 19 -4 4 -6 1 -10 -4 -10 -6 0 -11 -7 -11 -15 0 -8 -4 -15 -10 -15 -5 0
-10 -6 -10 -14 0 -8 -6 -17 -12 -19 -37 -15 101 2 155 19 13 4 17 -1 17 -24 0
-17 5 -32 11 -34 9 -3 9 -9 0 -25 -6 -12 -11 -31 -11 -42 0 -12 -2 -21 -5 -21
-3 0 -29 17 -58 38 -29 22 -68 45 -87 52 -19 8 -39 19 -43 24 -6 8 -10 7 -14
-1 -2 -7 -12 -13 -20 -13 -9 0 -22 -8 -29 -17 -12 -16 -13 -16 -14 -2 0 9 10
24 23 32 l22 16 -22 0 c-14 1 -23 9 -26 24 -2 12 -5 3 -6 -20 -1 -38 -4 -44
-33 -56 -31 -13 -34 -12 -41 7 -5 12 -9 42 -9 69 0 26 -3 47 -7 47 -9 0 -32
-71 -32 -97 1 -13 -4 -23 -9 -23 -13 0 -13 57 0 65 6 4 4 12 -5 22 -10 9 -13
22 -9 32 3 9 9 26 11 38 5 22 45 40 51 23 2 -6 14 -10 26 -10 12 0 27 -5 34
-12 20 -20 72 44 72 88 0 41 -15 45 -28 7 -9 -27 -9 -28 -16 -5 -8 25 -24 29
-32 8 -7 -17 -33 -10 -52 13 -10 13 -14 13 -21 2 -11 -17 -23 2 -15 23 3 9 1
16 -5 16 -6 0 -11 3 -11 8 0 4 31 8 69 9 55 2 74 -1 87 -15z m2677 -113 c-28
-28 -3 -36 92 -31 58 3 95 1 95 -5 0 -6 -47 -13 -104 -16 -57 -4 -116 -11
-132 -17 -15 -6 -30 -7 -33 -2 -3 5 -36 6 -72 3 -37 -4 -83 -6 -103 -6 -20 0
-36 -3 -36 -8 0 -4 -33 -5 -72 -3 -90 5 -87 5 -65 17 9 5 17 18 17 27 1 15 2
15 15 -2 11 -14 15 -16 15 -5 0 12 2 12 9 0 5 -7 14 -10 20 -7 6 4 11 0 11 -8
0 -9 6 -16 13 -16 17 0 49 39 42 50 -4 6 -2 10 3 10 6 0 13 -7 16 -16 5 -14
20 -16 96 -12 50 3 90 1 90 -3 0 -5 6 -9 13 -9 19 0 50 36 43 49 -3 5 2 12 11
14 10 3 20 5 23 6 2 0 -1 -4 -7 -10z m-2640 -452 c-2 -4 18 -6 46 -3 31 3 49
1 46 -5 -4 -5 -13 -9 -21 -9 -8 0 -14 -4 -14 -10 0 -5 9 -10 21 -10 32 0 20
-40 -21 -68 -38 -25 -82 -24 -109 3 -21 20 -17 112 6 137 17 19 17 19 34 -4
10 -12 15 -26 12 -31z m1114 21 c13 -12 23 -29 23 -37 0 -13 -2 -13 -9 -2 -5
7 -14 10 -20 7 -18 -11 -13 -26 9 -26 11 0 20 -4 20 -9 0 -5 -12 -8 -27 -6
-16 2 -35 -1 -44 -6 -12 -6 -23 -1 -39 16 -25 26 -40 32 -40 15 0 -6 10 -14
23 -19 13 -5 29 -16 36 -25 10 -12 17 -13 27 -5 17 14 56 -7 52 -28 -2 -9 -15
-25 -30 -36 -23 -17 -34 -19 -65 -11 -50 12 -72 64 -54 125 l12 40 30 -25 c38
-33 56 -26 51 19 -5 41 10 46 45 13z m302 -149 c-12 -7 -11 -13 2 -36 14 -25
20 -28 61 -25 l46 3 -22 -53 c-29 -71 -77 -158 -87 -158 -5 0 -8 26 -8 58 2
97 0 101 -18 67 -15 -27 -17 -28 -23 -10 -5 15 1 28 28 53 32 31 33 34 18 51
-24 27 -19 80 6 64 6 -3 4 -9 -3 -14z"/>
<path d="M9642 5188 c-7 -7 -8 -17 -1 -29 5 -10 10 -43 10 -75 2 -64 4 -61
-99 -106 -35 -15 -70 -24 -78 -21 -8 3 -14 0 -14 -6 0 -6 -6 -11 -14 -11 -7 0
-19 -6 -25 -13 -6 -8 -29 -19 -50 -26 -41 -12 -68 -34 -31 -24 23 6 27 -12 5
-21 -8 -3 -15 -9 -14 -13 3 -20 -2 -33 -13 -33 -7 0 -22 -8 -33 -17 -20 -16
-16 -16 30 3 26 11 16 -15 -12 -29 l-26 -14 35 -7 35 -6 8 -78 c4 -42 6 -125
5 -183 -1 -59 2 -109 7 -112 4 -3 7 27 6 66 -1 48 1 67 7 56 5 -9 8 -37 6 -63
-2 -25 1 -46 5 -46 5 0 9 -9 9 -20 0 -12 -6 -20 -12 -18 -7 2 -14 0 -15 -5 -6
-16 -2 -24 12 -24 8 0 15 4 15 9 0 5 4 7 10 3 15 -9 1 -33 -18 -30 -9 1 -11 0
-4 -2 6 -3 12 -9 12 -14 0 -6 4 -8 9 -4 5 3 13 0 17 -6 4 -7 3 -9 -4 -5 -13 8
-15 -82 -2 -134 5 -19 11 -48 13 -65 8 -47 15 -60 48 -79 24 -14 28 -20 18
-27 -9 -5 -4 -8 16 -6 48 3 61 22 41 60 -12 22 -21 82 -29 189 l-13 158 46 17
c109 40 108 39 102 68 -2 15 -7 23 -11 18 -10 -14 -69 -36 -80 -29 -5 4 -12 2
-16 -4 -4 -6 -9 -9 -13 -6 -4 2 -16 -5 -26 -15 -19 -19 -19 -19 0 -20 18 0 18
-1 -1 -8 -12 -5 -23 -4 -27 3 -12 17 -9 26 8 26 8 0 13 4 10 9 -3 5 0 13 7 18
20 15 96 42 99 34 2 -3 14 4 27 17 25 22 24 22 -44 -3 -90 -34 -88 -34 -91 -3
-3 30 6 36 109 73 27 9 46 19 43 22 -2 2 -37 -7 -77 -22 -48 -17 -76 -22 -82
-16 -7 7 -4 12 9 17 10 3 33 12 49 19 17 7 37 15 45 18 10 4 9 6 -6 6 -11 1
-43 -10 -70 -24 -67 -34 -74 -33 -74 15 0 40 1 41 33 39 36 -3 77 8 77 20 0 5
-7 14 -15 21 -18 15 -20 31 -4 28 6 -2 14 3 16 10 3 6 0 12 -7 12 -6 0 -8 5
-5 10 3 6 11 10 16 10 6 0 8 -4 5 -9 -3 -5 1 -12 10 -15 13 -5 14 -9 4 -21
-18 -22 -5 -30 45 -30 55 0 75 17 56 46 -9 15 -10 24 -2 32 8 8 11 7 11 -5 0
-8 6 -21 14 -27 10 -9 13 -7 13 6 0 36 3 43 18 43 8 0 15 3 15 8 0 4 -22 6
-50 5 -39 -1 -50 2 -50 13 0 9 5 12 11 8 15 -9 30 17 23 40 -4 12 -2 16 5 12
6 -4 11 -14 11 -22 0 -8 5 -14 10 -14 6 0 10 5 10 11 0 5 5 7 12 3 6 -4 8 -3
5 3 -4 6 -3 24 2 40 9 29 8 30 -33 39 -30 7 -48 6 -66 -3 -14 -7 -34 -13 -44
-13 -18 0 -19 1 -1 20 10 11 23 20 29 19 32 -4 41 3 42 31 1 20 -4 30 -14 30
-12 0 -12 3 1 23 11 17 15 46 14 100 -2 80 -6 94 -25 75z"/>
<path d="M7522 4598 c2 -19 9 -23 33 -20 17 1 35 -1 42 -5 6 -5 14 -55 18
-123 4 -63 9 -118 12 -123 2 -4 -9 -10 -26 -13 -34 -7 -42 -24 -11 -24 18 0
20 -8 22 -112 3 -98 5 -113 21 -116 15 -3 17 4 15 47 -1 27 -6 49 -11 48 -5
-1 -11 33 -13 76 -3 52 -1 76 6 72 5 -3 10 -16 11 -28 0 -20 1 -21 8 -3 11 28
26 2 23 -39 -2 -22 0 -27 8 -19 16 16 2 82 -19 87 -14 4 -14 5 2 6 9 0 17 7
17 15 0 8 -8 13 -17 12 -16 -1 -18 12 -21 117 -4 124 -3 126 43 105 22 -10 29
-9 48 11 l22 22 -42 -7 c-24 -4 -43 -3 -43 2 0 5 -28 10 -62 10 -37 1 -63 5
-66 12 -7 21 -23 12 -20 -10z"/>
<path d="M7454 4053 c-220 -238 -306 -333 -300 -333 8 0 163 160 159 164 -2 2
12 17 32 34 19 17 35 34 35 38 0 4 12 17 26 31 l25 23 19 -22 c13 -17 15 -25
7 -30 -7 -4 0 -8 16 -8 19 0 26 -4 21 -11 -5 -9 1 -10 19 -5 21 5 25 3 21 -9
-7 -18 -8 -18 -43 -1 -27 14 -66 6 -42 -8 6 -4 9 -11 6 -16 -3 -4 3 -7 12 -5
10 1 24 -2 31 -8 14 -11 17 -31 3 -22 -5 3 -12 1 -15 -4 -3 -5 8 -11 24 -13
17 -3 30 -1 30 4 0 4 -4 8 -10 8 -18 0 -10 22 10 27 11 3 20 11 20 18 0 19 51
25 83 10 15 -8 25 -9 22 -4 -4 5 2 9 12 9 14 1 13 4 -7 15 -14 7 -24 16 -22
19 4 10 -7 8 -43 -10 -30 -14 -36 -14 -49 -1 -11 11 -12 17 -3 28 10 11 9 11
-5 0 -13 -10 -22 -11 -31 -2 -10 7 -17 7 -24 0 -14 -14 -25 3 -29 43 -4 30 14
55 85 125 13 13 22 26 19 28 -3 3 -54 -47 -114 -112z"/>
<path d="M7680 4163 c0 -6 42 -62 94 -124 52 -63 93 -115 91 -117 -2 -2 -21 8
-42 22 -40 28 -114 35 -143 15 -11 -7 1 -8 40 -4 l55 6 -27 -25 -27 -24 24 -4
c15 -3 22 -1 19 7 -3 6 2 18 11 25 13 10 21 9 50 -11 27 -19 33 -28 28 -47 -5
-22 -3 -23 25 -19 23 4 35 0 49 -16 18 -20 18 -20 -7 -13 -73 20 -75 19 -77
-11 -1 -15 1 -22 4 -15 2 6 10 9 16 5 6 -4 8 0 4 10 -3 10 -2 17 2 17 5 0 11
-5 13 -10 2 -6 17 -12 33 -14 18 -1 29 -7 27 -15 -1 -7 2 -10 8 -6 6 4 27 -11
46 -32 l35 -38 -40 -6 c-22 -3 -44 -8 -48 -12 -3 -4 14 -4 38 -1 36 5 49 2 63
-11 14 -15 15 -20 4 -27 -10 -8 -9 -9 4 -4 12 3 27 -8 50 -37 18 -23 51 -64
74 -90 24 -26 42 -57 41 -67 -1 -22 -17 -28 -17 -7 0 6 -5 4 -11 -6 -14 -23
-9 -28 20 -20 13 3 20 11 17 19 -3 8 0 11 10 7 7 -3 14 -8 14 -12 0 -3 10 -18
23 -33 12 -15 33 -42 47 -60 14 -18 45 -55 69 -82 42 -48 43 -50 23 -59 -22
-10 -38 -37 -21 -37 5 0 12 7 15 15 7 16 39 20 48 6 4 -5 0 -12 -6 -14 -9 -4
-7 -6 3 -6 9 -1 30 -18 47 -38 110 -133 114 -140 87 -129 -8 3 -15 0 -15 -5 0
-6 9 -9 20 -6 14 3 26 -3 40 -20 11 -15 23 -23 27 -20 6 7 -5 22 -212 272
-171 207 -446 544 -620 760 -153 191 -145 182 -145 168z"/>
<path d="M9531 3593 c-18 -9 -47 -35 -62 -56 -32 -44 -37 -95 -19 -184 16 -81
35 -255 45 -411 5 -63 12 -105 19 -107 6 -2 40 -5 74 -8 l64 -3 -5 35 c-3 20
-16 156 -28 303 -25 292 -23 318 26 377 l25 29 -26 21 c-32 25 -67 26 -113 4z"/>
<path d="M7699 3501 c-61 -44 -86 -74 -119 -146 -21 -45 -24 -68 -28 -222 -2
-109 0 -173 6 -173 5 0 8 21 6 48 -2 26 -1 38 2 27 4 -11 11 -26 17 -33 5 -7
7 -15 4 -18 -3 -4 4 -15 16 -25 18 -14 20 -20 10 -30 -11 -11 -13 -8 -13 11 0
17 -3 21 -11 13 -6 -6 -8 -37 -3 -87 l7 -76 58 0 c33 0 59 3 59 8 0 4 -17 7
-38 7 -61 1 -72 9 -72 55 0 23 4 39 9 35 6 -3 14 2 19 11 9 16 11 16 33 0 13
-9 31 -16 41 -16 10 0 19 -7 19 -15 3 -32 4 -35 14 -32 6 1 8 7 6 12 -13 38
-11 64 6 68 14 3 11 6 -10 12 -26 7 -28 11 -26 56 2 37 6 49 18 49 11 0 12 3
5 8 -7 4 -13 16 -15 26 -6 28 -27 31 -31 4 -5 -34 -44 -32 -41 2 2 14 3 42 4
63 2 43 6 46 20 15 8 -19 8 -16 4 14 -9 58 11 53 25 -7 7 -30 17 -55 22 -55 4
0 9 26 9 58 1 55 2 55 9 18 8 -42 7 -87 -3 -102 -7 -13 29 -61 39 -51 4 4 2
13 -4 19 -15 15 -16 45 -2 53 15 9 101 -6 94 -16 -3 -5 -10 -7 -15 -4 -14 10
-11 -50 6 -81 8 -16 11 -33 6 -38 -5 -6 -7 -21 -5 -33 2 -13 -1 -23 -7 -23 -5
0 -8 -4 -4 -9 3 -5 1 -12 -4 -15 -12 -8 -22 24 -25 73 -1 20 -5 42 -10 49 -4
7 -3 11 2 10 11 -3 12 6 4 35 -2 9 -9 17 -14 17 -6 0 -8 -8 -5 -19 6 -23 -21
-47 -48 -43 -19 3 -19 2 1 -16 23 -19 37 -79 20 -85 -6 -2 -9 -24 -7 -49 2
-40 0 -46 -20 -51 -39 -10 -12 -21 69 -27 l77 -5 1 -68 c1 -37 5 -71 9 -75 4
-4 4 92 0 213 -7 215 -18 285 -44 285 -7 0 -7 9 0 27 6 15 7 24 3 21 -3 -4
-23 19 -44 51 -29 45 -50 64 -91 85 -29 14 -70 26 -91 26 -43 0 -44 20 -1 39
16 7 23 17 19 26 -6 18 2 45 15 45 5 0 9 -16 9 -35 0 -29 5 -37 26 -45 41 -16
52 -12 59 20 4 17 11 30 16 30 5 0 9 6 9 14 0 8 -18 20 -40 28 -22 7 -40 18
-39 23 1 6 5 9 10 8 5 -2 9 1 9 6 0 5 15 16 33 25 17 8 25 16 16 16 -9 0 -40
-18 -70 -39z"/>
<path d="M8367 3063 c-4 -3 -7 -14 -7 -24 0 -10 -11 -26 -25 -35 -18 -12 -25
-25 -25 -49 0 -31 2 -33 46 -39 26 -3 79 -6 118 -7 39 -1 96 -4 126 -7 47 -6
55 -10 61 -32 4 -14 7 -18 8 -9 1 18 40 29 103 29 35 0 39 2 28 15 -10 12 -16
13 -26 4 -11 -9 -14 -8 -14 0 0 8 -8 10 -20 6 -41 -13 -70 -15 -70 -5 0 5 6
10 14 10 21 0 31 21 15 31 -10 6 -8 9 9 9 15 0 22 5 20 13 -3 6 -16 12 -29 12
-19 0 -25 -6 -27 -27 -2 -16 -8 -28 -13 -28 -6 0 -7 -4 -4 -10 3 -5 1 -10 -4
-10 -6 0 -11 4 -11 10 0 5 -16 7 -35 5 -19 -3 -46 -1 -59 5 -16 6 -27 6 -31 0
-4 -6 -25 -7 -48 -4 -23 3 -63 5 -88 5 -40 -1 -47 2 -52 21 -7 24 10 41 31 33
7 -3 10 -1 7 4 -3 5 3 12 12 14 17 4 17 5 0 6 -17 1 -17 3 -3 23 9 12 16 26
16 30 0 10 -14 10 -23 1z"/>
<path d="M2462 2765 c-38 -43 -38 -45 -12 -45 32 0 23 -22 -30 -75 -27 -27
-50 -56 -50 -65 1 -9 14 2 33 25 18 22 44 52 60 67 15 15 27 30 27 34 0 4 10
15 22 25 26 23 66 24 96 3 20 -14 22 -14 22 0 0 14 16 16 103 16 86 0 107 3
120 18 14 16 14 17 -11 17 -15 1 -99 4 -187 9 l-160 7 -33 -36z"/>
<path d="M7606 2743 c-17 -4 -18 -14 -13 -114 l4 -109 -31 -1 c-21 -1 -24 -3
-10 -6 19 -4 22 -13 28 -80 3 -42 6 -114 6 -160 l0 -83 118 -1 c64 0 125 -2
135 -4 15 -3 17 8 17 113 0 225 -23 334 -82 389 -47 45 -122 69 -172 56z"/>
<path d="M8658 2654 c-38 -20 -48 -43 -48 -113 0 -34 -4 -61 -10 -61 -6 0 -8
-28 -5 -72 3 -40 8 -126 11 -191 6 -113 7 -118 28 -116 49 3 56 0 56 -31 0
-27 3 -30 31 -30 l31 0 -6 88 c-3 48 -9 150 -13 227 -3 77 -8 148 -9 158 -1 9
-2 40 -3 67 -1 35 -5 50 -15 50 -9 0 -13 -14 -12 -50 1 -27 5 -52 9 -56 4 -4
7 -16 7 -27 0 -19 -1 -19 -18 -4 -10 10 -23 17 -29 17 -18 0 -36 27 -22 35 8
6 7 10 -2 16 -10 6 -11 9 -1 9 6 0 12 5 12 11 0 5 -6 7 -12 3 -10 -6 -10 -4 0
7 6 7 12 21 12 31 0 20 28 37 50 31 32 -9 59 -26 54 -34 -2 -4 0 -10 6 -14 6
-4 7 -11 4 -17 -4 -7 -2 -8 4 -4 8 5 12 -5 12 -33 0 -24 5 -41 11 -41 8 0 10
15 5 48 -4 36 -14 54 -41 80 -38 35 -57 38 -97 16z"/>
<path d="M8386 2642 c-14 -16 -18 -36 -17 -87 1 -64 0 -65 -27 -66 -17 -1 -20
-3 -9 -6 14 -4 17 -17 18 -66 1 -34 4 -116 8 -182 l6 -120 42 0 c50 0 53 -3
55 -49 1 -34 3 -36 34 -36 18 0 40 -3 49 -7 16 -6 17 3 11 108 -3 63 -7 171
-8 241 -2 97 -6 129 -17 133 -10 4 -12 -2 -8 -27 5 -28 10 -233 8 -290 -1 -10
-5 -18 -10 -18 -5 0 -12 63 -16 140 -6 121 -10 143 -28 167 -27 35 -46 51 -75
63 -20 8 -21 13 -11 31 9 17 8 20 -3 13 -7 -4 -5 2 5 13 10 12 17 31 15 43
l-3 22 -19 -20z"/>
<path d="M9133 2628 c-12 -6 -24 -16 -27 -23 -4 -12 130 -25 261 -25 l53 0 1
-87 c2 -175 6 -250 13 -261 5 -8 0 -12 -13 -12 -12 0 -21 5 -21 11 0 5 -4 8
-8 5 -4 -2 -18 4 -32 14 -20 15 -22 21 -12 33 7 8 9 22 6 31 -8 20 -42 12 -61
-13 -16 -21 -16 -7 0 21 14 25 54 71 42 48 -5 -8 3 -5 17 8 13 12 31 22 39 23
8 0 6 3 -6 8 -10 4 -28 3 -40 -3 -32 -18 -80 -50 -86 -59 -3 -4 -14 -4 -25 0
-17 6 -17 5 -5 -10 12 -15 11 -17 -3 -17 -9 0 -16 5 -16 10 0 6 -16 8 -40 4
-36 -6 -40 -5 -34 11 5 13 3 16 -7 13 -8 -2 -16 -15 -18 -29 -1 -13 -8 -28
-15 -32 -7 -5 -7 -10 -1 -13 6 -2 9 -40 6 -95 l-3 -91 113 8 c205 13 214 15
217 48 2 16 -2 32 -10 37 -9 6 -7 9 10 9 21 0 22 3 22 110 0 75 4 110 11 110
8 0 8 4 2 13 -5 6 -7 26 -3 42 5 25 7 27 13 12 4 -11 4 -23 1 -28 -3 -6 -1
-15 4 -22 5 -7 10 -19 10 -27 10 -156 9 -170 -4 -181 -8 -6 -13 -29 -12 -54
l0 -42 87 -6 c58 -3 91 -1 100 6 12 9 13 9 7 0 -5 -10 4 -13 37 -13 43 0 43 0
39 31 -2 17 -13 36 -23 42 -26 16 -24 35 4 40 20 4 19 4 -4 6 -24 1 -27 5 -27
41 0 22 4 40 10 40 7 0 7 4 1 13 -6 6 -13 29 -16 50 -5 32 -3 37 15 37 14 0
18 -5 14 -15 -3 -8 -1 -15 4 -15 6 0 10 11 10 24 0 19 -4 22 -25 18 -18 -3
-25 0 -25 11 0 9 11 17 28 20 l27 4 -27 2 c-37 1 -38 31 -2 31 14 0 23 4 20 9
-3 4 -18 6 -32 3 -23 -4 -26 -2 -21 12 4 10 7 22 7 27 0 5 11 9 24 9 17 0 25
7 28 24 l5 23 -151 6 c-83 4 -173 8 -201 10 -27 3 -36 2 -18 0 17 -2 37 -11
44 -19 10 -12 8 -13 -12 -6 -13 5 -78 8 -144 6 -92 -2 -113 0 -90 8 17 5 59 9
94 8 42 -1 61 2 56 9 -8 14 -153 13 -182 -1z"/>
<path d="M7488 2579 c-3 -28 -2 -121 3 -207 4 -86 8 -162 9 -167 0 -6 10 -11
21 -11 21 0 21 3 15 91 -3 49 -6 111 -6 137 0 36 -4 48 -17 51 -17 4 -17 5 0
6 18 1 25 41 7 41 -5 0 -10 22 -10 49 0 67 -16 74 -22 10z"/>
<path d="M8105 2363 c4 -98 9 -180 11 -182 2 -2 47 -6 99 -9 l95 -4 -1 28 0
29 -10 -25 c-18 -45 -29 -1 -29 118 0 93 -4 120 -20 152 -26 51 -55 70 -108
70 l-44 0 7 -177z"/>
<path d="M3400 2278 c-5 -47 -7 -284 -2 -263 7 28 11 30 57 33 28 2 105 1 173
-3 107 -6 123 -9 120 -24 -2 -9 -12 -15 -23 -13 -18 2 -19 2 -2 -8 9 -6 17
-22 17 -35 0 -14 4 -25 9 -25 5 0 9 72 9 164 l-1 163 -96 7 c-95 6 -261 8
-261 4z"/>
<path d="M7208 1964 c1 -44 7 -71 16 -78 17 -13 19 -22 17 -97 l-1 -57 -45 6
c-30 3 -51 0 -62 -9 -11 -9 -14 -10 -9 -1 5 8 0 12 -14 12 -15 0 -20 -5 -17
-14 4 -11 -3 -16 -26 -19 -22 -3 -15 -4 20 -5 28 -1 59 -5 69 -9 13 -5 16 -3
11 10 -3 9 -2 17 3 17 5 0 11 -8 13 -17 4 -16 5 -16 6 -2 0 9 8 19 16 23 17 6
20 -5 4 -21 -8 -8 4 -11 41 -11 31 0 56 -5 60 -12 5 -8 24 -11 54 -8 33 4 46
1 46 -8 0 -7 10 -14 22 -16 13 -2 29 -15 36 -31 l13 -27 29 20 c19 13 31 17
35 10 10 -17 55 -31 76 -25 11 4 19 15 19 26 0 16 -8 19 -57 21 -54 2 -53 2
22 8 73 6 69 7 -49 7 -95 1 -131 5 -137 15 -7 11 -12 72 -12 151 0 9 -5 17
-12 17 -8 0 -11 -8 -8 -20 4 -14 0 -20 -10 -20 -10 0 -17 -12 -20 -32 -4 -32
-4 -32 -5 5 -2 33 -5 37 -21 32 -25 -7 -51 19 -51 52 0 23 3 24 43 21 29 -2
42 1 41 10 -1 6 -2 24 -2 38 -2 18 -7 25 -19 23 -46 -4 -63 1 -63 21 0 18 7
20 65 20 120 0 66 24 -75 33 l-35 2 0 -56 c0 -32 -3 -60 -7 -65 -5 -4 -8 23
-8 59 0 37 -3 67 -7 67 -5 0 -7 -30 -5 -66z"/>
<path d="M7852 2001 c-14 -8 -16 -148 -2 -156 3 -2 5 -23 4 -47 -2 -24 -3 -50
-3 -58 -1 -12 -10 -15 -37 -12 -26 3 -35 1 -30 -7 4 -6 15 -11 24 -12 14 0 13
-2 -3 -9 -14 -6 -4 -9 38 -9 44 -1 57 2 57 14 0 10 10 15 30 15 26 0 30 4 30
27 0 31 12 24 14 -9 0 -13 7 -23 14 -23 15 0 17 -18 3 -23 -6 -2 -11 1 -11 7
0 6 -5 11 -11 11 -6 0 -8 -7 -5 -16 5 -13 1 -14 -25 -9 -22 5 -29 4 -25 -4 4
-6 23 -11 42 -11 51 0 74 -15 74 -50 0 -19 6 -30 18 -32 25 -6 64 13 58 28 -3
8 -1 16 3 19 5 2 11 -4 14 -15 7 -28 37 -26 37 2 0 21 1 21 13 3 16 -20 42
-11 33 12 -4 8 -1 11 5 7 6 -3 9 -14 6 -24 -6 -23 3 -37 28 -42 16 -2 21 3 24
32 l4 35 6 -30 c5 -23 12 -31 34 -33 23 -3 27 0 27 22 0 14 5 28 10 31 6 4 10
-6 10 -24 0 -36 6 -40 47 -34 27 4 32 10 35 37 l4 31 10 -35 c6 -19 17 -35 25
-35 19 0 25 64 7 69 -27 9 -391 14 -412 6 -37 -14 -54 9 -59 81 -3 35 -6 65
-6 67 -1 1 -10 -2 -21 -8 -12 -7 -20 -7 -20 -1 0 5 -14 9 -31 9 -34 -1 -46 11
-44 44 1 19 7 21 59 21 l57 0 -3 36 c-2 20 -9 37 -15 37 -7 1 -33 2 -58 3 -38
1 -45 4 -45 21 0 17 6 19 57 17 38 -1 58 2 60 11 4 9 -12 12 -55 12 -33 0 -66
2 -74 5 -7 3 -19 1 -26 -4z"/>
<path d="M8420 1923 c0 -46 5 -85 10 -88 7 -4 7 -11 2 -18 -5 -7 -6 -23 -2
-37 9 -36 1 -70 -16 -63 -8 3 -14 0 -14 -6 0 -9 -5 -9 -21 -1 -24 13 -31 10
-20 -9 5 -7 36 -15 72 -18 35 -3 67 -10 70 -15 4 -6 26 -11 50 -13 57 -4 58
-5 32 -15 -14 -6 -23 -18 -23 -30 0 -31 42 -23 51 10 7 24 7 24 8 -4 l1 -29
23 19 c32 29 67 20 67 -17 0 -16 5 -29 10 -29 6 0 10 10 10 23 0 12 5 29 10
37 8 13 10 12 11 -5 1 -11 0 -28 -1 -38 -1 -14 4 -18 22 -15 18 2 24 11 29 43
6 37 9 32 13 -19 2 -34 26 -31 26 3 0 17 5 31 10 31 6 0 10 -13 10 -30 0 -23
5 -31 25 -36 31 -8 55 10 55 42 0 13 5 24 10 24 6 0 10 -11 10 -24 0 -30 14
-40 45 -32 17 4 22 11 18 26 -3 11 -9 20 -14 20 -5 0 -9 4 -9 9 0 5 9 7 20 4
14 -4 20 0 20 11 0 14 -24 16 -215 16 -207 0 -217 1 -246 22 -24 18 -32 20
-38 9 -7 -11 -14 -10 -37 5 l-28 19 57 3 c31 2 57 7 57 12 0 5 26 11 58 13
l57 3 -57 2 c-32 1 -58 7 -58 12 0 6 62 11 163 11 89 1 144 5 122 8 -22 4 -95
6 -162 4 -72 -1 -123 2 -123 7 0 5 -23 9 -50 9 -57 -2 -63 1 -65 36 -1 25 0
25 90 27 49 1 73 3 53 5 -21 2 -38 8 -38 13 0 5 17 11 38 13 l37 4 -38 1 c-26
1 -37 6 -34 15 2 6 14 11 25 9 12 -2 22 2 22 9 0 8 -12 10 -39 6 -21 -2 -45
-1 -52 4 -8 5 -17 3 -22 -4 -7 -9 -10 -9 -14 1 -2 6 -11 12 -19 12 -8 0 -14 5
-14 10 0 15 97 13 103 -2 3 -7 6 -1 6 15 1 26 -1 27 -53 27 -30 0 -57 4 -61 9
-3 6 -14 9 -25 8 -18 -1 -20 -9 -20 -84z"/>
<path d="M9800 1958 c0 -22 -3 -23 -42 -20 -24 2 -48 8 -54 13 -7 5 -11 3 -11
-6 0 -8 6 -15 14 -15 17 0 17 -20 1 -21 -7 0 -4 -4 7 -8 23 -10 43 -2 25 9 -9
5 -9 9 -1 14 14 9 33 -2 26 -14 -3 -5 4 -12 16 -15 21 -7 33 -1 35 16 1 5 2
14 3 19 0 6 10 10 21 10 15 0 20 -7 21 -27 1 -16 3 -42 5 -59 l4 -31 -44 4
-44 5 2 -46 c1 -43 3 -46 33 -52 17 -3 37 -3 43 1 7 4 7 -1 -2 -15 -10 -18
-10 -24 0 -27 6 -3 12 -12 12 -21 0 -15 -2 -15 -10 -2 -7 11 -10 2 -10 -32 0
-35 4 -48 14 -48 8 0 17 -12 19 -27 3 -16 4 5 3 45 -1 39 2 72 6 72 4 0 8 9 8
20 0 11 -5 20 -11 20 -7 0 -10 34 -7 105 1 58 0 105 -4 105 -4 0 -10 9 -13 20
-3 11 -11 20 -16 20 -6 0 -7 -5 -3 -11 3 -6 -5 -3 -20 6 -26 17 -26 17 -26 -7z"/>
<path d="M5400 1740 c0 -17 7 -20 40 -20 33 0 40 -3 40 -19 0 -16 -8 -20 -42
-23 -24 -2 -43 -9 -46 -17 -4 -11 6 -13 46 -9 33 3 50 1 49 -6 -1 -6 8 -12 21
-14 12 -2 22 1 22 7 0 6 11 11 25 11 18 0 25 -5 25 -20 0 -23 32 -43 63 -38
16 2 22 10 22 30 1 15 4 30 8 34 4 4 7 -7 7 -24 0 -17 5 -34 10 -37 6 -4 10 7
10 24 0 17 5 31 10 31 6 0 10 -11 10 -25 0 -17 7 -28 23 -34 29 -12 57 13 57
51 l0 28 -82 1 c-190 3 -174 -3 -177 67 -1 21 -5 22 -71 22 -63 0 -70 -2 -70
-20z"/>
<path d="M6083 1663 c-29 -4 -33 -8 -33 -33 0 -29 19 -44 45 -34 13 5 20 32
16 57 -1 5 3 6 9 2 5 -3 10 -15 10 -26 0 -10 7 -19 15 -19 8 0 15 9 15 19 0
11 4 22 8 25 4 2 6 -11 4 -30 -4 -32 -3 -34 27 -34 25 0 31 4 31 23 0 12 5 29
10 37 7 11 10 6 10 -21 0 -31 4 -37 24 -41 31 -6 46 8 46 44 0 15 4 28 8 28 5
0 8 -10 8 -21 -1 -16 8 -25 35 -34 37 -13 37 -13 43 17 7 34 21 30 21 -5 0
-17 7 -23 31 -25 27 -3 31 1 41 35 l10 38 2 -42 c1 -42 2 -43 36 -43 34 0 35
1 35 40 0 22 4 40 9 40 5 0 11 -18 15 -40 l6 -40 50 0 c43 0 50 3 50 19 0 11
3 26 6 35 5 13 -2 16 -35 16 -23 0 -41 4 -41 9 0 9 -497 12 -567 4z"/>
<path d="M5464 1486 c-17 -8 -34 -24 -37 -36 -3 -12 -10 -19 -16 -15 -6 3 -11
0 -12 -7 0 -7 -2 -23 -3 -35 -2 -20 2 -23 30 -23 20 0 34 -6 38 -16 9 -24 7
-66 -3 -60 -5 3 -12 -1 -15 -9 -4 -11 0 -15 11 -13 11 2 23 -8 33 -27 8 -16
23 -31 33 -33 16 -3 18 2 14 32 -3 20 -1 38 3 41 9 6 21 65 22 111 1 28 4 30
41 31 46 2 60 12 51 36 -8 22 -40 22 -54 0 -10 -17 -10 -17 -20 0 -7 10 -23
17 -43 17 -24 0 -28 3 -17 10 24 15 -18 12 -56 -4z"/>
<path d="M9140 1399 c0 -13 20 -16 126 -18 112 -2 126 0 121 13 -4 10 -1 16 8
16 8 0 15 -6 15 -13 0 -9 29 -11 117 -10 96 2 117 5 119 18 2 13 -29 15 -252
13 -222 -3 -254 -5 -254 -19z"/>
<path d="M3970 1370 c0 -7 12 -10 28 -9 15 2 32 1 37 -2 6 -4 42 -7 80 -9 117
-4 404 -19 489 -24 26 -2 52 -9 56 -16 5 -9 9 -9 14 -1 12 20 42 12 54 -14 14
-31 36 -34 27 -3 -6 17 -4 20 9 15 9 -4 16 -2 16 3 0 13 37 13 45 0 9 -15 25
-12 25 4 0 8 8 16 18 19 9 2 -14 4 -53 5 -38 0 -140 5 -225 11 -85 7 -213 14
-285 16 -71 3 -176 7 -232 10 -72 4 -103 2 -103 -5z"/>
<path d="M4772 1263 c-14 -26 -16 -69 -3 -77 6 -4 6 -19 1 -39 -5 -17 -11 -52
-14 -76 -3 -24 -10 -49 -16 -55 -5 -5 -10 -21 -10 -36 1 -20 7 -14 31 33 24
46 34 57 54 57 28 0 30 -7 11 -33 -15 -20 -9 -67 8 -67 7 0 13 -6 13 -14 0 -8
-6 -12 -14 -9 -13 5 -18 -9 -6 -20 11 -11 33 14 33 38 0 26 52 75 78 75 9 0
32 -9 51 -21 33 -20 61 -20 61 1 0 5 -9 10 -21 10 -14 0 -19 5 -16 14 8 20
-47 133 -57 118 -4 -7 -12 -10 -17 -7 -11 7 -41 -20 -32 -29 4 -3 19 -6 36 -6
30 0 33 -16 6 -33 -11 -7 -23 -2 -43 18 l-27 27 -20 -21 c-19 -20 -59 -29 -59
-13 0 5 12 13 28 19 l27 11 -30 2 c-16 1 -24 4 -17 7 6 2 12 13 12 24 0 10 5
19 10 19 6 0 10 7 10 15 0 8 -9 15 -19 15 -36 0 -53 11 -40 26 6 7 9 21 7 31
-3 16 -5 16 -16 -4z"/>
<path d="M4083 1096 c3 -19 1 -52 -4 -75 -8 -35 -6 -44 11 -61 11 -11 25 -20
31 -20 5 0 7 -5 4 -10 -4 -7 -12 -7 -25 0 -27 14 -27 14 -51 -37 -24 -54 -37
-143 -20 -143 6 0 11 9 11 21 0 11 12 44 26 74 21 43 32 54 55 57 37 6 39 3
28 -37 -7 -26 -6 -42 5 -63 8 -15 14 -37 13 -47 -1 -11 3 -20 8 -19 6 0 23
-12 39 -27 l29 -27 -99 3 c-77 3 -89 2 -54 -5 25 -5 70 -9 100 -9 69 -2 90
-12 70 -36 -12 -15 -12 -19 5 -31 10 -8 26 -14 34 -14 13 0 13 2 2 9 -9 6 -15
35 -17 89 -2 44 -5 92 -8 105 -3 19 -1 24 10 20 10 -4 12 0 8 11 -3 9 0 24 7
34 13 16 12 16 -7 0 -11 -10 -24 -18 -27 -18 -13 0 -7 49 8 64 20 19 19 28 -2
25 -35 -6 -73 11 -73 31 0 13 5 18 15 14 11 -5 15 1 15 18 0 13 6 30 12 36 10
10 6 10 -20 1 -17 -6 -32 -16 -32 -22 0 -16 -17 4 -25 31 -5 18 -2 22 17 22
18 1 11 7 -27 27 -27 14 -51 30 -53 34 -2 5 -8 9 -14 9 -6 0 -8 -13 -5 -34z"/>
<path d="M4609 1003 c11 -22 16 -83 5 -83 -3 0 -15 5 -26 11 -14 8 -23 8 -31
0 -8 -8 -8 -11 0 -11 6 0 14 -7 17 -16 5 -13 1 -15 -18 -10 -14 3 -26 1 -28
-5 -2 -7 -9 -5 -17 5 -12 14 -12 16 3 10 11 -4 16 -1 16 10 0 15 -11 20 -37
17 -6 -1 -14 3 -18 9 -5 8 -12 7 -23 -2 -9 -8 -13 -8 -9 -2 11 18 -27 59 -47
51 -10 -4 -14 -11 -11 -17 4 -6 10 -8 14 -6 4 3 12 -4 19 -14 11 -18 10 -19
-13 -8 -21 10 -29 9 -43 -6 -14 -14 -15 -18 -3 -25 8 -5 11 -16 7 -29 -10 -29
12 -38 23 -9 11 28 30 38 60 30 20 -5 30 -23 13 -23 -4 0 -13 -13 -19 -30 -15
-40 -40 -49 -59 -21 -8 11 -21 21 -28 21 -9 0 -12 9 -8 25 2 14 0 25 -6 25
-13 0 -20 -65 -9 -85 5 -10 4 -15 -7 -15 -10 0 -14 -13 -14 -52 -1 -48 8 -67
31 -68 15 0 6 39 -10 42 -14 3 -11 8 15 23 17 11 32 25 32 32 0 21 17 15 23
-7 3 -11 -2 -27 -10 -36 -13 -12 -13 -20 -4 -40 14 -32 14 -31 -9 -37 -11 -3
-20 -1 -20 4 0 5 -9 9 -20 9 -11 0 -20 -4 -20 -9 0 -11 25 -21 51 -21 10 0 19
-5 19 -11 0 -7 -11 -9 -30 -6 -22 5 -28 3 -24 -8 3 -8 24 -17 47 -20 76 -10
298 -35 305 -33 4 1 21 -4 37 -11 17 -7 42 -15 58 -18 23 -5 26 -3 21 11 -5
13 -14 15 -35 11 -29 -7 -42 8 -16 18 9 4 9 6 0 6 -7 1 -10 8 -6 17 5 14 2 16
-20 10 -20 -5 -27 -3 -27 8 0 8 12 17 28 19 27 4 27 4 4 12 -19 6 -23 13 -19
34 3 15 -3 42 -15 64 -23 45 -33 43 -22 -5 4 -18 7 -37 6 -42 -2 -4 2 -14 8
-20 13 -17 4 -25 -21 -19 -22 6 -24 14 -6 32 10 11 9 13 -6 7 -10 -3 -27 -6
-38 -6 -10 0 -19 -7 -19 -15 0 -9 9 -15 24 -15 14 0 28 -4 31 -10 3 -5 -1 -10
-10 -10 -10 0 -13 -5 -9 -11 5 -9 -1 -10 -20 -5 -25 6 -36 -6 -16 -19 17 -10
1 -25 -26 -25 -21 0 -24 4 -19 20 4 13 -2 28 -19 45 -14 14 -26 33 -26 42 0
13 -3 14 -12 5 -19 -19 -38 -14 -38 11 0 13 -4 27 -10 33 -11 11 -2 54 11 54
5 0 9 -7 9 -15 0 -8 7 -15 15 -15 8 0 15 -4 15 -10 0 -5 -4 -10 -10 -10 -5 0
-10 -5 -10 -11 0 -5 8 -9 18 -7 9 1 23 -1 30 -6 7 -4 16 -5 20 -1 4 3 -1 11
-11 16 -9 6 -17 19 -17 29 0 24 8 25 34 5 28 -21 34 -19 28 10 -3 20 -8 24
-28 19 -30 -8 -30 -3 2 47 16 26 31 39 42 37 18 -4 19 -11 7 -73 -8 -39 -7
-39 11 -24 10 9 26 19 34 22 10 4 11 6 2 6 -7 1 -10 6 -7 11 4 6 -3 25 -14 43
-11 19 -17 38 -12 43 5 5 11 25 14 46 4 29 1 40 -15 55 -21 18 -21 18 -9 -4z"/>
<path d="M4725 912 c-3 -13 -1 -29 4 -36 7 -8 7 -23 2 -42 l-9 -29 -1 28 c-1
15 -6 27 -12 27 -13 0 -5 -29 27 -96 13 -28 24 -58 24 -66 0 -8 5 -29 11 -47
11 -30 14 -32 53 -29 l41 3 3 52 c2 40 -1 57 -17 75 -11 13 -21 28 -21 33 -1
6 -7 17 -14 25 -18 21 -27 50 -17 50 5 0 11 -6 13 -12 3 -9 12 -8 32 5 15 10
24 23 20 29 -5 8 -10 5 -14 -7 -6 -17 -8 -15 -14 9 l-7 29 -23 -22 c-25 -23
-42 -16 -25 9 14 23 11 27 -20 32 -25 4 -31 0 -36 -20z"/>
<path d="M4991 808 c-36 -46 -72 -80 -67 -65 6 20 -7 23 -23 4 -8 -10 -7 -29
5 -72 8 -33 16 -60 17 -61 6 -5 250 -34 254 -30 2 2 -11 7 -29 11 -146 28
-175 38 -130 43 19 2 51 -4 73 -12 34 -14 39 -14 39 -1 0 9 -6 12 -17 8 -9 -4
-14 -2 -10 3 3 6 -26 16 -71 23 -108 18 -108 18 -88 39 9 10 16 23 16 28 0 5
14 26 30 46 17 20 26 39 21 43 -5 3 -14 0 -20 -7z"/>
</g>
</svg>
