<?xml version="1.0" standalone="no"?>
<!DOCTYPE svg PUBLIC "-//W3C//DTD SVG 20010904//EN"
 "http://www.w3.org/TR/2001/REC-SVG-20010904/DTD/svg10.dtd">
<svg version="1.0" xmlns="http://www.w3.org/2000/svg"
 width="1573.000000pt" height="840.000000pt" viewBox="0 0 1573.000000 840.000000"
 preserveAspectRatio="xMidYMid meet">
<metadata>
Created by potrace 1.16, written by Peter Selinger 2001-2019
</metadata>
<g transform="translate(0.000000,840.000000) scale(0.100000,-0.100000)"
fill="#000000" stroke="none">
<path d="M3890 7781 c-98 -31 -218 -123 -311 -240 l-35 -44 -88 31 c-48 18
-101 32 -117 32 -41 0 -135 -27 -294 -84 -77 -28 -231 -98 -342 -157 -512
-270 -993 -756 -1325 -1339 -108 -191 -213 -417 -273 -589 -18 -53 -37 -107
-43 -121 -35 -82 -115 -396 -145 -565 -71 -394 -75 -920 -12 -1255 9 -47 20
-106 25 -132 5 -26 16 -71 24 -100 9 -29 27 -96 42 -148 14 -52 39 -126 55
-164 16 -37 29 -72 29 -77 0 -14 99 -225 147 -312 60 -109 180 -289 238 -357
114 -133 270 -292 351 -356 47 -38 101 -82 119 -99 185 -173 396 -318 660
-455 121 -62 179 -83 270 -99 115 -20 191 -40 310 -81 348 -122 386 -133 555
-156 177 -23 276 -16 479 36 83 21 207 92 355 203 236 177 259 191 441 252
140 46 217 83 335 161 161 107 347 268 478 416 43 50 202 256 202 263 0 2 19
32 43 67 69 101 160 267 271 493 56 115 166 374 166 391 0 8 8 40 19 71 52
161 63 196 66 231 2 20 11 66 19 102 13 59 14 61 15 25 1 -22 -6 -169 -15
-328 -13 -232 -13 -295 -3 -319 13 -32 60 -65 124 -87 22 -8 42 -17 45 -20 3
-4 50 -29 105 -55 55 -27 102 -52 105 -55 9 -10 42 -29 120 -67 137 -67 389
-126 537 -126 190 -1 320 53 454 189 40 40 83 76 95 79 31 8 70 0 144 -29 154
-60 238 -82 435 -117 272 -48 364 -38 684 76 133 46 111 48 566 -30 504 -87
748 -33 1022 225 99 93 181 135 286 149 40 5 167 14 282 20 275 15 425 43 591
111 67 28 144 64 171 81 26 17 83 48 126 69 43 21 85 43 92 49 8 7 19 9 25 5
5 -3 10 -1 10 5 0 7 15 -1 33 -16 84 -72 108 -88 202 -128 55 -23 156 -70 225
-104 248 -122 557 -175 740 -127 139 36 230 103 348 255 36 47 69 87 72 90 14
11 118 148 145 190 108 167 154 316 159 509 6 218 -37 420 -116 555 -43 73
-92 124 -198 211 -119 96 -197 171 -205 196 -4 10 -10 19 -14 19 -5 0 -21 28
-36 62 -31 69 -36 149 -17 248 6 30 14 73 17 95 3 22 13 87 21 145 26 173 27
273 9 470 -17 182 -48 325 -81 377 -7 12 -23 38 -34 58 -26 46 -34 57 -93 116
-27 27 -53 47 -57 44 -5 -3 -10 -2 -12 3 -14 33 -502 202 -585 202 -103 0
-602 -59 -633 -75 -46 -24 -61 -61 -106 -268 -22 -98 -33 -125 -44 -107 -6 8
-10 11 -10 6 0 -5 -6 -4 -13 2 -24 20 -192 83 -272 102 -98 23 -216 38 -355
44 -79 4 -137 14 -234 41 -155 42 -276 52 -426 36 -58 -6 -213 -22 -345 -37
-132 -14 -343 -36 -470 -50 -126 -13 -277 -29 -335 -35 -232 -25 -383 -89
-581 -244 l-81 -64 -36 23 c-21 13 -55 28 -77 35 -22 7 -49 16 -60 21 -11 5
-91 32 -179 60 l-159 51 -151 -16 c-359 -39 -387 -43 -411 -59 -46 -30 -53
-60 -60 -254 -4 -100 -11 -185 -15 -187 -4 -2 -13 8 -21 23 -34 65 -177 183
-213 174 -4 -2 -13 2 -20 7 -21 18 -462 161 -495 161 -17 0 -138 -11 -269 -25
-255 -27 -270 -32 -303 -91 -14 -24 -20 -98 -35 -396 -10 -203 -21 -368 -24
-368 -4 0 -7 6 -7 13 0 17 -13 125 -19 167 -22 137 -144 460 -241 635 -46 82
-175 279 -207 315 -12 14 -35 45 -52 69 -43 66 -288 310 -399 399 -92 73 -257
165 -355 197 -122 40 -290 113 -290 126 0 5 -4 9 -10 9 -5 0 -32 16 -59 35
-26 19 -53 35 -60 35 -6 0 -11 4 -11 9 0 15 -151 99 -220 122 -36 12 -74 25
-85 30 -11 4 -49 13 -85 19 -36 7 -103 25 -150 40 -345 116 -431 140 -487 139
-32 0 -69 -4 -83 -8z m171 -72 c96 -33 164 -132 204 -302 85 -362 32 -844
-145 -1322 -53 -142 -116 -284 -205 -467 l-57 -117 12 -58 c13 -66 171 -706
198 -800 10 -35 22 -67 27 -72 6 -6 50 -15 98 -21 137 -17 215 -51 334 -148
134 -108 262 -378 294 -620 14 -108 6 -375 -15 -452 -83 -314 -259 -533 -538
-671 l-66 -32 -17 -71 c-127 -538 -311 -875 -591 -1082 -90 -67 -86 -66 -371
-80 l-151 -7 -48 39 c-158 127 -215 296 -168 494 16 68 83 204 131 265 57 73
164 132 223 123 34 -5 36 -26 3 -33 -115 -26 -213 -146 -243 -303 -30 -152 20
-260 150 -321 71 -34 168 -34 252 -2 167 65 343 335 422 647 62 247 59 276
-33 294 -217 43 -467 142 -611 240 -122 84 -233 203 -284 307 -30 60 -72 190
-85 267 -32 176 0 407 90 645 34 93 176 359 261 490 73 112 107 162 224 334
98 143 123 246 99 408 -9 56 -17 105 -19 108 -11 17 -57 424 -66 576 -5 94
-12 211 -16 260 -20 268 -5 453 46 558 11 22 20 48 20 56 0 17 55 237 91 364
11 42 25 77 30 77 5 0 8 10 8 23 -3 58 107 277 131 262 6 -4 10 1 10 9 0 13
35 33 52 28 4 -1 5 4 3 11 -6 15 62 60 77 51 7 -5 9 -2 6 7 -4 10 2 15 18 17
13 1 38 8 56 16 41 18 114 20 159 5z m-691 -228 c0 -5 -18 -56 -40 -112 -22
-57 -40 -107 -40 -112 0 -5 -7 -24 -16 -43 -13 -27 -26 -37 -63 -48 -249 -74
-560 -247 -811 -449 -230 -185 -542 -544 -668 -769 -13 -23 -40 -67 -59 -97
-54 -85 -166 -316 -227 -469 -123 -311 -201 -633 -236 -972 -15 -148 -13 -501
4 -655 32 -285 108 -575 211 -800 65 -141 80 -172 128 -250 228 -373 528 -638
902 -795 55 -24 106 -47 113 -53 8 -6 12 -42 12 -111 0 -55 4 -118 9 -139 12
-51 1 -54 -93 -27 -287 80 -583 265 -835 520 -129 130 -275 324 -351 464 -57
107 -140 274 -140 283 0 5 -9 27 -19 49 -54 112 -136 391 -171 584 -56 310
-65 708 -25 1054 13 118 58 359 65 352 3 -2 5 5 6 17 0 12 3 33 7 47 42 184
117 423 167 535 5 11 29 70 55 130 25 61 54 124 63 142 9 17 32 60 50 95 17
35 36 70 41 78 28 45 101 173 101 177 0 2 4 9 10 16 34 42 60 80 94 136 22 35
46 72 55 82 9 9 27 33 41 53 26 39 86 110 132 157 14 15 24 29 23 31 -9 8 347
358 364 358 5 0 15 8 20 18 6 9 11 14 11 9 0 -4 16 7 36 25 20 18 45 38 57 45
12 7 18 12 12 13 -5 0 5 8 22 18 30 16 56 34 112 77 14 11 38 27 53 34 15 8
37 23 48 33 11 10 22 18 25 19 16 0 103 47 98 53 -3 3 0 6 8 6 8 0 56 20 107
45 52 25 97 45 101 45 4 0 25 9 47 19 22 11 56 22 77 26 20 4 37 11 37 15 0 4
8 7 18 7 41 -2 160 16 187 28 36 16 65 19 65 6z m1336 -157 c173 -84 333 -204
490 -365 190 -196 317 -382 441 -644 203 -431 294 -890 279 -1415 -8 -316 -35
-517 -106 -816 -60 -253 -210 -658 -312 -844 -23 -41 -54 -100 -70 -129 -53
-101 -193 -314 -306 -466 -162 -218 -392 -449 -621 -621 -116 -87 -267 -184
-288 -184 -7 0 4 26 27 61 21 33 44 77 50 97 18 58 71 185 86 206 8 11 42 44
76 74 278 242 461 442 618 676 178 264 262 421 366 679 170 420 256 857 256
1292 0 533 -111 977 -347 1381 -176 300 -413 543 -692 710 -46 27 -85 55 -88
61 -2 7 -7 79 -11 160 l-7 146 33 -6 c18 -4 74 -28 126 -53z m8474 -507 c0
-13 -77 -331 -171 -708 -93 -376 -176 -713 -184 -749 -8 -36 -37 -157 -64
-270 l-50 -205 22 -18 c20 -16 38 -18 172 -14 225 6 665 46 698 63 16 8 33 11
39 8 11 -7 1 -549 -11 -607 l-7 -32 -173 -16 c-95 -9 -178 -22 -183 -27 -7 -7
-13 -133 -17 -336 -4 -185 -11 -330 -17 -336 -8 -8 -473 -46 -478 -38 -1 2 2
142 7 311 6 212 6 316 -1 332 -10 22 -16 23 -159 26 -143 4 -151 5 -213 36
-106 52 -203 162 -246 278 -22 59 -25 259 -5 365 22 117 92 413 121 515 16 55
54 206 85 335 30 129 86 367 125 528 38 161 77 331 87 379 10 54 24 95 37 109
27 30 91 40 336 55 120 7 194 16 210 25 34 19 40 17 40 -9z m-1841 -212 c175
-20 382 -148 496 -309 118 -168 142 -258 157 -591 14 -300 -2 -923 -26 -1041
-54 -266 -193 -512 -394 -698 -212 -196 -498 -292 -753 -253 -131 20 -151 31
-162 87 -8 45 6 520 23 785 5 77 15 360 21 628 9 371 9 501 0 539 -32 142 -95
185 -245 167 -79 -10 -123 -34 -160 -88 -54 -78 -53 -59 -96 -1131 -5 -140
-15 -356 -20 -480 -6 -124 -15 -349 -20 -500 -6 -151 -13 -289 -15 -307 -5
-28 -12 -34 -63 -53 -107 -41 -246 -71 -352 -77 -315 -17 -556 129 -696 422
-103 216 -131 468 -104 915 42 680 66 932 100 1067 38 146 145 337 266 471 69
77 189 169 286 221 133 72 224 93 518 121 52 5 244 25 425 45 398 42 606 64
660 68 41 4 58 3 154 -8z m-8367 -178 c35 -13 82 -35 106 -50 l42 -27 0 -103
c1 -56 3 -186 6 -289 5 -156 4 -189 -8 -193 -8 -3 -70 -14 -137 -25 -142 -21
-160 -32 -168 -101 -4 -34 -1 -50 14 -68 18 -22 25 -23 124 -22 57 1 125 4
151 7 l47 6 6 -38 c4 -22 9 -46 11 -54 8 -33 -14 -42 -169 -64 -133 -19 -160
-25 -182 -46 -33 -31 -35 -100 -4 -131 21 -21 28 -21 158 -15 75 4 157 9 182
12 l47 6 11 -53 c10 -43 9 -55 -3 -67 -20 -20 -107 -38 -253 -52 -70 -7 -136
-17 -146 -22 -26 -14 -49 -74 -42 -109 10 -45 39 -59 120 -59 38 0 88 5 109
10 67 15 67 6 -1 -96 l-33 -52 -81 -12 c-102 -14 -107 -16 -124 -51 -34 -64
-8 -149 45 -149 11 0 20 -4 20 -9 0 -4 -30 -71 -66 -147 -158 -332 -218 -547
-232 -832 l-7 -137 -31 -3 c-39 -4 -144 23 -198 50 -53 27 -153 107 -190 152
-115 141 -121 153 -151 326 -9 52 -24 114 -32 138 -23 63 -12 157 32 267 43
109 41 107 85 127 61 28 112 38 241 48 143 10 204 29 213 65 3 13 8 29 11 37
3 8 -4 25 -15 38 -25 29 -61 30 -293 11 -107 -10 -171 -11 -177 -5 -5 5 -7 33
-3 63 6 53 7 54 59 78 38 17 96 29 208 43 85 10 168 26 184 34 58 30 68 119
15 133 -15 3 -104 -1 -198 -9 -162 -15 -234 -14 -245 2 -3 5 -3 31 -2 59 3 40
9 54 25 62 33 18 125 37 263 54 71 8 141 20 155 26 32 13 72 80 62 105 -16 43
-29 47 -131 40 -53 -4 -154 -9 -224 -13 l-128 -6 1 34 c3 85 8 91 84 111 39 9
134 24 213 33 79 8 151 19 160 24 9 4 24 7 33 6 8 -2 26 5 39 15 26 20 31 70
11 108 -16 30 -98 37 -250 23 -144 -13 -261 -14 -261 -3 0 22 31 172 41 202
46 131 147 283 253 383 89 84 252 168 367 190 70 13 170 6 231 -16z m5778
-139 c0 -87 -12 -371 -60 -1398 -11 -234 -31 -684 -45 -1000 -14 -316 -29
-604 -33 -640 l-7 -65 -47 -6 c-92 -14 -450 -40 -464 -35 -10 4 -11 11 -5 28
9 21 21 254 38 716 8 201 6 205 -96 196 -294 -24 -719 -64 -733 -69 -10 -4
-20 -21 -23 -38 -2 -18 -14 -221 -25 -452 -12 -231 -23 -428 -26 -437 -3 -10
-15 -20 -27 -22 -35 -8 -387 -36 -441 -36 -42 0 -47 2 -41 18 10 23 12 59 30
462 8 190 20 431 25 535 6 105 17 323 25 485 9 162 22 426 30 585 8 160 19
389 25 510 25 509 30 537 83 550 12 3 106 14 208 24 102 10 195 23 206 29 11
6 23 8 27 5 11 -11 7 -125 -23 -731 -45 -904 -44 -819 -18 -837 13 -9 43 -15
77 -15 64 0 674 57 707 66 51 14 54 37 78 599 32 718 45 945 55 965 15 29 41
37 156 49 217 24 290 34 304 42 36 20 40 11 40 -83z m-3437 -185 c81 -159 170
-422 203 -602 53 -287 68 -617 40 -866 -19 -170 -39 -298 -63 -400 -15 -67
-33 -106 -33 -74 0 19 -55 125 -87 167 -14 18 -44 53 -67 76 -37 39 -145 159
-171 189 -95 113 -160 265 -170 402 -3 33 -7 85 -9 115 -6 65 7 206 27 310 9
41 18 90 22 108 3 18 13 56 21 85 8 29 16 59 18 67 3 8 14 42 26 75 11 33 28
82 36 109 9 27 24 61 33 75 10 14 33 50 52 78 19 29 39 53 46 53 7 0 10 7 6
16 -4 11 24 84 33 84 1 0 18 -30 37 -67z m-3479 -2305 c8 -13 26 -59 41 -103
58 -176 150 -300 285 -387 87 -56 167 -83 298 -101 l93 -12 20 -55 c46 -128
46 -128 38 -279 -7 -122 -6 -147 6 -161 17 -19 84 -42 97 -34 20 12 56 -7 68
-36 17 -42 5 -96 -27 -117 -30 -20 -169 -39 -358 -49 -153 -8 -162 -4 -151 70
5 33 16 52 40 73 18 16 30 36 28 44 -3 8 -1 11 3 7 4 -4 38 25 76 64 l69 70 1
87 c2 146 -3 161 -50 161 -15 0 -67 12 -116 26 -76 22 -132 47 -254 113 -14 8
-60 49 -101 91 -116 119 -210 321 -210 452 0 78 70 129 104 76z"/>
<path d="M3888 7213 c-114 -211 -163 -774 -103 -1173 14 -91 28 -181 33 -200
l8 -35 14 25 c7 14 16 27 20 30 12 9 57 113 78 180 110 356 146 675 107 950
-25 177 -53 250 -97 250 -10 0 -18 5 -18 10 0 23 -19 7 -42 -37z"/>
<path d="M3458 4810 c-124 -147 -311 -476 -394 -692 -62 -160 -87 -279 -87
-413 -1 -182 37 -280 153 -395 101 -101 271 -180 508 -235 65 -15 176 -20 156
-7 -9 5 -6 24 9 70 22 66 37 80 37 35 0 -16 5 -35 10 -43 44 -68 -44 643 -101
818 -14 43 -29 41 -22 -3 9 -55 -29 -43 -44 14 l-9 34 -17 -26 c-98 -150 -82
-423 32 -533 23 -22 32 -39 29 -55 -5 -37 -37 -34 -98 8 -45 32 -61 52 -95
119 -53 103 -70 182 -69 314 0 159 34 269 126 407 76 115 77 144 13 378 -15
55 -31 115 -35 133 -4 18 -13 38 -19 46 -6 7 -9 16 -6 20 3 3 -1 1 -7 -4 -9
-8 -10 -13 -2 -18 13 -9 25 -52 14 -52 -9 0 -30 55 -30 81 0 22 -33 22 -52 -1z"/>
<path d="M4185 4158 c26 -154 67 -546 76 -733 6 -126 13 -236 15 -242 6 -21
45 -15 78 11 67 51 122 163 132 266 2 30 7 71 9 90 3 20 1 80 -4 135 -19 219
-117 399 -260 481 -24 13 -45 24 -47 24 -3 0 -2 -15 1 -32z"/>
<path d="M11107 5949 c-4 -19 -11 -151 -17 -294 -28 -684 -40 -1035 -40 -1144
0 -117 0 -119 26 -136 23 -15 32 -15 71 -4 118 33 241 173 287 329 29 95 48
869 25 1009 -25 155 -131 256 -283 268 l-63 6 -6 -34z"/>
<path d="M9765 5833 c-98 -40 -180 -119 -226 -217 -22 -47 -31 -86 -39 -171
-10 -114 -32 -481 -50 -854 -15 -311 4 -457 70 -555 69 -100 234 -155 268 -89
5 10 15 155 21 323 7 168 18 454 26 635 39 921 39 893 21 920 -19 29 -35 30
-91 8z"/>
</g>
</svg>
